<svg width="421" height="432" viewBox="0 0 421 432" fill="none" xmlns="http://www.w3.org/2000/svg">
<g clip-path="url(#clip0_146_1323)">
<path d="M264.606 408.998L251.863 431.069H277.349L264.606 408.998L251.863 431.069H277.349L264.606 408.998Z" fill="#F2F2F2"/>
<path d="M232.025 111.388V171.933C232.022 173.575 231.369 175.149 230.208 176.31C229.047 177.471 227.473 178.124 225.831 178.127H179.391L179.818 177.58C204.25 161.269 221.564 139.506 231.478 112.082L232.025 111.388Z" fill="#F2F2F2"/>
<path d="M279.084 51.0879H15.8982C11.6833 51.093 7.64247 52.7696 4.66208 55.75C1.68169 58.7304 0.00508249 62.7712 0 66.9861V225.071C0.00508249 229.286 1.68169 233.327 4.66208 236.307C7.64247 239.288 11.6833 240.964 15.8982 240.969H279.084C283.299 240.964 287.34 239.288 290.32 236.307C293.3 233.327 294.977 229.286 294.982 225.071V66.9861C294.977 62.7712 293.3 58.7304 290.32 55.75C287.34 52.7696 283.299 51.093 279.084 51.0879ZM293.581 225.071C293.581 226.975 293.206 228.86 292.478 230.619C291.75 232.378 290.682 233.977 289.336 235.323C287.989 236.669 286.391 237.737 284.632 238.465C282.873 239.194 280.988 239.568 279.084 239.568H15.8982C13.9943 239.568 12.1091 239.194 10.35 238.465C8.59103 237.737 6.99275 236.669 5.64652 235.323C4.30029 233.977 3.23247 232.378 2.50407 230.619C1.77567 228.86 1.40096 226.975 1.40134 225.071V161.57C1.40134 157.87 1.58117 154.215 1.94085 150.604C4.64601 123.702 17.2508 98.7655 37.3081 80.6348C57.3655 62.5041 83.4443 52.4731 110.482 52.4892H279.084C282.928 52.4896 286.616 54.0171 289.334 56.7357C292.053 59.4543 293.58 63.1414 293.581 66.9861V225.071Z" fill="#E6E6E6"/>
<path d="M195.031 124.805H58.1407C57.0192 124.805 55.9436 125.251 55.1506 126.044C54.3576 126.837 53.9121 127.912 53.9121 129.034C53.9121 130.155 54.3576 131.231 55.1506 132.024C55.9436 132.817 57.0192 133.263 58.1407 133.263H195.031C196.152 133.263 197.228 132.817 198.021 132.024C198.814 131.231 199.259 130.155 199.259 129.034C199.259 127.912 198.814 126.837 198.021 126.044C197.228 125.251 196.152 124.805 195.031 124.805Z" fill="#E6E6E6"/>
<path d="M100.58 101.088H58.1402C57.0178 101.088 55.9414 101.534 55.1477 102.327C54.3541 103.121 53.9082 104.198 53.9082 105.32C53.9082 106.442 54.3541 107.519 55.1477 108.312C55.9414 109.106 57.0178 109.552 58.1402 109.552H100.58C101.702 109.552 102.779 109.106 103.572 108.312C104.366 107.519 104.812 106.442 104.812 105.32C104.812 104.198 104.366 103.121 103.572 102.327C102.779 101.534 101.702 101.088 100.58 101.088Z" fill="#E6E6E6"/>
<path d="M58.1407 124.805H79.1257C76.4772 127.839 73.6007 130.667 70.5215 133.263H58.1407C57.0192 133.263 55.9436 132.817 55.1506 132.024C54.3576 131.231 53.9121 130.155 53.9121 129.034C53.9121 127.912 54.3576 126.837 55.1506 126.044C55.9436 125.251 57.0192 124.805 58.1407 124.805Z" fill="#53389E"/>
<path d="M58.1403 101.088H93.5591C92.4285 103.985 91.1252 106.811 89.6564 109.552H58.1403C57.0178 109.552 55.9414 109.106 55.1477 108.312C54.3541 107.519 53.9082 106.442 53.9082 105.32C53.9082 104.198 54.3541 103.121 55.1477 102.327C55.9414 101.534 57.0178 101.088 58.1403 101.088Z" fill="#53389E"/>
<path d="M96.9587 53.323C72.449 56.3916 49.7052 67.6843 32.4456 85.355C15.1861 103.026 4.43177 126.029 1.94085 150.604C1.28922 150.478 0.644616 150.331 0 150.177V66.9861C0.00508249 62.7712 1.68169 58.7304 4.66208 55.75C7.64247 52.7696 11.6833 51.093 15.8982 51.0879H96.3982C96.6013 51.8236 96.7835 52.5733 96.9587 53.323Z" fill="#53389E"/>
<path d="M96.1654 65.6609C103.474 65.6609 109.399 59.736 109.399 52.4271C109.399 45.1183 103.474 39.1934 96.1654 39.1934C88.8566 39.1934 82.9316 45.1183 82.9316 52.4271C82.9316 59.736 88.8566 65.6609 96.1654 65.6609Z" fill="white"/>
<path d="M96.1668 66.3617C93.4108 66.3617 90.7168 65.5444 88.4253 64.0133C86.1338 62.4822 84.3478 60.3059 83.2931 57.7597C82.2385 55.2136 81.9625 52.4118 82.5002 49.7088C83.0378 47.0058 84.365 44.523 86.3137 42.5742C88.2625 40.6255 90.7453 39.2983 93.4483 38.7607C96.1513 38.223 98.9531 38.499 101.499 39.5536C104.045 40.6083 106.222 42.3943 107.753 44.6858C109.284 46.9773 110.101 49.6713 110.101 52.4273C110.097 56.1216 108.628 59.6635 106.015 62.2758C103.403 64.8881 99.8611 66.3575 96.1668 66.3617ZM96.1668 39.8943C93.688 39.8943 91.2649 40.6293 89.2038 42.0065C87.1428 43.3836 85.5364 45.341 84.5878 47.6311C83.6392 49.9212 83.391 52.4412 83.8746 54.8724C84.3582 57.3035 85.5518 59.5367 87.3046 61.2895C89.0574 63.0423 91.2906 64.2359 93.7217 64.7195C96.1529 65.2031 98.6729 64.9549 100.963 64.0063C103.253 63.0577 105.21 61.4513 106.588 59.3903C107.965 57.3292 108.7 54.9061 108.7 52.4273C108.696 49.1045 107.375 45.9188 105.025 43.5692C102.675 41.2196 99.4896 39.898 96.1668 39.8943Z" fill="#3F3D56"/>
<path d="M94.3596 59.3146C94.1311 59.3146 93.9057 59.2614 93.7013 59.1592C93.4969 59.0569 93.3192 58.9085 93.1821 58.7257L89.5717 53.9117C89.4557 53.7571 89.3714 53.5811 89.3234 53.3938C89.2754 53.2066 89.2648 53.0117 89.2921 52.8203C89.3195 52.629 89.3843 52.4449 89.4828 52.2785C89.5812 52.1122 89.7115 51.9669 89.8662 51.8509C90.0208 51.7349 90.1968 51.6505 90.3841 51.6025C90.5714 51.5546 90.7662 51.544 90.9576 51.5713C91.149 51.5987 91.3331 51.6634 91.4994 51.7619C91.6658 51.8604 91.8111 51.9907 91.9271 52.1454L94.2891 55.2945L100.356 46.1947C100.573 45.8705 100.909 45.6456 101.292 45.5694C101.674 45.4932 102.071 45.5719 102.396 45.7883C102.72 46.0046 102.946 46.3409 103.023 46.7234C103.099 47.1058 103.021 47.503 102.805 47.8279L95.5846 58.659C95.454 58.8549 95.2783 59.0166 95.0723 59.1306C94.8663 59.2446 94.636 59.3075 94.4006 59.3141L94.3596 59.3146Z" fill="#53389E"/>
<path d="M200.564 158.85C207.873 158.85 213.798 152.925 213.798 145.616C213.798 138.308 207.873 132.383 200.564 132.383C193.255 132.383 187.33 138.308 187.33 145.616C187.33 152.925 193.255 158.85 200.564 158.85Z" fill="white"/>
<path d="M200.565 159.551C197.809 159.551 195.115 158.733 192.824 157.202C190.532 155.671 188.746 153.495 187.692 150.949C186.637 148.403 186.361 145.601 186.899 142.898C187.436 140.195 188.763 137.712 190.712 135.763C192.661 133.814 195.144 132.487 197.847 131.95C200.55 131.412 203.352 131.688 205.898 132.743C208.444 133.797 210.62 135.583 212.151 137.875C213.682 140.166 214.5 142.86 214.5 145.616C214.495 149.311 213.026 152.852 210.414 155.465C207.801 158.077 204.26 159.546 200.565 159.551ZM200.565 133.083C198.086 133.083 195.663 133.818 193.602 135.195C191.541 136.573 189.935 138.53 188.986 140.82C188.038 143.11 187.789 145.63 188.273 148.061C188.757 150.492 189.95 152.726 191.703 154.478C193.456 156.231 195.689 157.425 198.12 157.908C200.551 158.392 203.071 158.144 205.361 157.195C207.652 156.247 209.609 154.64 210.986 152.579C212.363 150.518 213.098 148.095 213.098 145.616C213.095 142.293 211.773 139.108 209.423 136.758C207.074 134.409 203.888 133.087 200.565 133.083Z" fill="#E6E6E6"/>
<path d="M198.762 152.504C198.533 152.504 198.308 152.451 198.104 152.348C197.899 152.246 197.722 152.098 197.584 151.915L193.974 147.101C193.858 146.946 193.774 146.77 193.726 146.583C193.678 146.396 193.667 146.201 193.694 146.01C193.75 145.623 193.956 145.274 194.269 145.04C194.581 144.806 194.973 144.705 195.36 144.761C195.746 144.816 196.095 145.022 196.329 145.335L198.691 148.484L204.758 139.384C204.975 139.06 205.311 138.835 205.694 138.759C206.077 138.682 206.474 138.761 206.798 138.977C207.123 139.194 207.348 139.53 207.425 139.913C207.502 140.295 207.424 140.692 207.208 141.017L199.987 151.848C199.856 152.044 199.681 152.206 199.475 152.32C199.269 152.434 199.038 152.497 198.803 152.503L198.762 152.504Z" fill="#E6E6E6"/>
<path d="M164.919 7.03573C159.076 2.76513 152.022 0.472648 144.785 0.49256C139.308 0.556605 133.93 1.96275 129.123 4.58781C124.316 7.21286 120.226 10.9767 117.211 15.5496C116.698 16.3334 117.82 17.2869 118.339 16.4949C122.012 10.9032 127.323 6.58316 133.545 4.12599C138.55 2.19775 143.958 1.55692 149.275 2.26228C154.591 2.96764 159.645 4.99661 163.974 8.1631C164.734 8.72207 165.684 7.59799 164.919 7.03573Z" fill="#E6E6E6"/>
<path d="M108.951 10.4253L105.669 22.6192C105.65 22.7305 105.656 22.8449 105.687 22.9535C105.719 23.062 105.775 23.162 105.851 23.2456C105.927 23.3291 106.021 23.3942 106.126 23.4356C106.232 23.4771 106.345 23.4939 106.458 23.4847L120.192 21.2854C121.121 21.1365 121 19.6698 120.063 19.8198L106.329 22.0191L107.117 22.8847L110.399 10.6908C110.645 9.77506 109.196 9.51695 108.951 10.4253Z" fill="#E6E6E6"/>
<path d="M116.429 173.52C122.272 177.791 129.326 180.083 136.563 180.064C142.04 180 147.418 178.593 152.225 175.968C157.032 173.343 161.122 169.579 164.137 165.007C164.65 164.223 163.528 163.269 163.009 164.061C159.336 169.653 154.025 173.973 147.802 176.43C142.798 178.358 137.389 178.999 132.073 178.294C126.757 177.589 121.702 175.56 117.374 172.393C116.614 171.834 115.664 172.958 116.429 173.52Z" fill="#E6E6E6"/>
<path d="M172.398 170.131L175.68 157.937C175.7 157.825 175.694 157.711 175.662 157.603C175.631 157.494 175.575 157.394 175.499 157.31C175.423 157.227 175.328 157.162 175.223 157.12C175.118 157.079 175.005 157.062 174.892 157.071L161.158 159.271C160.229 159.419 160.35 160.886 161.287 160.736L175.021 158.537L174.233 157.671L170.951 169.865C170.705 170.781 172.154 171.039 172.398 170.131Z" fill="#E6E6E6"/>
<path d="M288.942 35.8249H236.461C234.774 35.8249 233.156 35.1548 231.963 33.9618C230.77 32.7689 230.1 31.1509 230.1 29.4639C230.1 27.7768 230.77 26.1588 231.963 24.9659C233.156 23.773 234.774 23.1028 236.461 23.1028H288.942C290.629 23.1028 292.247 23.773 293.44 24.9659C294.633 26.1588 295.303 27.7768 295.303 29.4639C295.303 31.1509 294.633 32.7689 293.44 33.9618C292.247 35.1548 290.629 35.8249 288.942 35.8249Z" fill="#F2F2F2"/>
<path d="M287.738 29.4638L290.243 26.9592C290.314 26.8887 290.371 26.8048 290.409 26.7124C290.448 26.62 290.468 26.5208 290.468 26.4207C290.468 26.3205 290.449 26.2213 290.411 26.1287C290.372 26.0361 290.316 25.952 290.245 25.8812C290.175 25.8104 290.09 25.7542 289.998 25.716C289.905 25.6778 289.806 25.6582 289.706 25.6584C289.606 25.6587 289.507 25.6787 289.414 25.7173C289.322 25.756 289.238 25.8125 289.167 25.8836L286.663 28.3883L284.158 25.8836C284.088 25.8125 284.004 25.756 283.911 25.7173C283.819 25.6787 283.72 25.6587 283.62 25.6584C283.52 25.6582 283.42 25.6778 283.328 25.716C283.235 25.7542 283.151 25.8104 283.08 25.8812C283.009 25.952 282.953 26.0361 282.915 26.1287C282.877 26.2213 282.857 26.3205 282.857 26.4207C282.858 26.5208 282.878 26.62 282.916 26.7124C282.955 26.8048 283.011 26.8887 283.083 26.9592L285.587 29.4638L283.1 31.9506C283.029 32.0211 282.973 32.105 282.934 32.1974C282.895 32.2898 282.875 32.389 282.875 32.4891C282.875 32.5893 282.895 32.6885 282.933 32.7811C282.971 32.8737 283.027 32.9578 283.098 33.0286C283.169 33.0994 283.253 33.1556 283.346 33.1938C283.438 33.232 283.537 33.2516 283.637 33.2514C283.738 33.2511 283.837 33.2311 283.929 33.1925C284.022 33.1538 284.105 33.0973 284.176 33.0262L286.663 30.5394L289.15 33.0262C289.292 33.1677 289.486 33.2469 289.687 33.2465C289.888 33.246 290.081 33.166 290.223 33.0237C290.365 32.8815 290.445 32.6888 290.445 32.4877C290.446 32.2866 290.367 32.0935 290.225 31.9506L287.738 29.4638Z" fill="white"/>
<path d="M205.578 228.389C205.484 228.389 205.392 228.371 205.306 228.334C205.22 228.298 205.142 228.245 205.077 228.178L201.079 224.091C200.951 223.96 200.879 223.784 200.879 223.601C200.879 223.418 200.951 223.242 201.079 223.111L205.077 219.025C205.141 218.958 205.218 218.904 205.303 218.867C205.387 218.83 205.479 218.811 205.571 218.809C205.664 218.808 205.756 218.825 205.842 218.859C205.928 218.893 206.006 218.944 206.072 219.009C206.139 219.074 206.191 219.151 206.228 219.236C206.264 219.321 206.283 219.413 206.283 219.505C206.284 219.598 206.266 219.69 206.231 219.775C206.196 219.861 206.144 219.939 206.079 220.005L202.56 223.601L206.079 227.198C206.175 227.297 206.24 227.422 206.266 227.557C206.292 227.693 206.277 227.833 206.224 227.96C206.17 228.087 206.08 228.196 205.965 228.272C205.85 228.348 205.716 228.389 205.578 228.389Z" fill="#3F3D56"/>
<path d="M212.298 228.389C212.16 228.389 212.026 228.348 211.911 228.272C211.796 228.196 211.706 228.087 211.652 227.96C211.599 227.833 211.584 227.693 211.61 227.557C211.636 227.422 211.701 227.297 211.797 227.198L215.316 223.601L211.797 220.005C211.67 219.871 211.6 219.693 211.602 219.508C211.605 219.324 211.681 219.148 211.813 219.019C211.945 218.89 212.123 218.818 212.307 218.819C212.492 218.82 212.669 218.894 212.799 219.025L216.797 223.111C216.925 223.242 216.997 223.418 216.997 223.601C216.997 223.784 216.925 223.96 216.797 224.091L212.799 228.178C212.734 228.245 212.656 228.298 212.57 228.334C212.484 228.371 212.392 228.389 212.298 228.389Z" fill="#3F3D56"/>
<path d="M225.766 154.695C226.14 153.668 226.735 152.736 227.508 151.964C228.281 151.191 229.215 150.598 230.242 150.226C231.27 149.853 232.367 149.71 233.455 149.807C234.544 149.905 235.598 150.239 236.544 150.788L302.639 133.467L303.723 147.084L239.049 161.509C238.022 163.036 236.471 164.133 234.689 164.593C232.907 165.052 231.019 164.842 229.381 164.002C227.744 163.162 226.471 161.751 225.805 160.036C225.139 158.321 225.125 156.42 225.766 154.695Z" fill="#A0616A"/>
<path d="M325.414 130.717C323.841 128.453 321.644 126.694 319.089 125.655C316.535 124.617 313.734 124.344 311.027 124.869L286.723 129.584C286.723 129.584 295.09 157.593 305.685 156.974C310.151 156.714 315.802 154.09 320.846 151.142C322.547 150.156 324.025 148.828 325.188 147.243C326.35 145.657 327.172 143.848 327.601 141.929C328.03 140.011 328.057 138.024 327.68 136.095C327.304 134.165 326.532 132.334 325.414 130.717Z" fill="#3F3D56"/>
<path d="M301.07 416.813L294.63 416.759L291.779 391.339L301.284 391.419L301.07 416.813Z" fill="#A0616A"/>
<path d="M303.979 429.842L302.781 413.846L301.099 413.734L294.24 413.264L292.033 413.117L291.991 417.721L281.705 424.699C281.254 425.006 280.899 425.434 280.682 425.933C280.465 426.433 280.394 426.985 280.477 427.523C280.561 428.062 280.796 428.566 281.155 428.976C281.513 429.387 281.981 429.687 282.503 429.842C282.762 429.921 283.032 429.962 283.302 429.961L296.103 430.066L296.216 429.842L298.346 425.526L299.123 429.842L299.165 430.094L304 430.136L303.979 429.842Z" fill="#2F2E41"/>
<path d="M368.873 412.108L362.717 414L352.326 390.627L361.412 387.834L368.873 412.108Z" fill="#A0616A"/>
<path d="M369.61 408.766L367.971 409.165L361.293 410.784H361.286L359.142 411.309L360.494 415.717L352.794 425.47C352.462 425.896 352.256 426.406 352.2 426.943C352.143 427.48 352.238 428.022 352.473 428.507C352.709 428.993 353.076 429.403 353.532 429.691C353.989 429.979 354.517 430.133 355.057 430.136C355.342 430.136 355.625 430.093 355.898 430.01L356.444 429.842L368.139 426.248L368.902 421.238L371.067 425.344L375.685 423.921L369.61 408.766Z" fill="#2F2E41"/>
<path d="M288.117 203.072L275.827 238.788L275.421 241.646C272.325 244.586 276.215 245.555 274.756 246.33C273.297 247.105 272.316 249.279 274.282 249.667C276.248 250.056 282.585 389.362 290.944 394.771C299.304 400.18 304.391 404.092 302.856 396.172C302.237 392.981 303.112 375.872 304.378 356.579C304.521 354.392 306.787 352.078 304.821 349.952C302.856 347.826 305.064 346.427 305.187 344.663C306.95 319.469 308.986 294.596 308.986 294.596C308.986 294.596 322.014 339.339 325.398 335.875C328.781 332.411 327.442 340.939 328.475 343.487C329.339 345.617 325.653 349.8 331.071 349.864C336.488 349.928 349.211 393.419 350.501 393.37C353.058 393.272 360.246 393.547 364.515 392.669C366.623 392.235 357.266 359.308 349.453 330.875C348.83 328.607 345.439 328.555 347.62 324.177C349.801 319.799 338.95 291.474 339.881 290.164C342.352 286.687 343.293 285.175 340.856 284.947C338.418 284.72 337.698 286.057 337.567 282.684C337.435 279.311 337.014 270.993 337.014 270.993C337.014 270.993 335.249 238.097 322.885 219.923L321.83 209.124L288.117 203.072Z" fill="#2F2E41"/>
<path d="M288.675 203.836C278.024 205.383 260.606 214.827 272.716 194.027L285.45 162.267C276.119 155.023 283.959 141.636 291.778 128.258L309.933 110.102H325.705L329.876 125.966C335.032 137.068 335.689 149.735 331.712 161.311C329.117 168.852 335.495 185.219 334.218 186.44C331.416 189.122 326.511 185.856 331.416 190.992C336.32 196.129 337.302 197.772 335.41 199.753C333.518 201.734 329.314 208.04 329.314 208.04L322.882 219.923L288.675 203.836Z" fill="#3F3D56"/>
<path d="M321.601 106.376C330.853 102.778 335.437 92.3606 331.839 83.1084C328.241 73.8561 317.823 69.2725 308.571 72.8706C299.319 76.4687 294.735 86.8859 298.333 96.1382C301.931 105.39 312.349 109.974 321.601 106.376Z" fill="#A0616A"/>
<path d="M339.272 112.977C341.717 116.475 343.352 120.473 344.059 124.682C342.089 125.942 339.796 126.604 337.458 126.587C337.378 126.281 337.299 125.975 337.208 125.669C336.531 123.297 335.523 121.033 334.214 118.943C334.393 121.197 334.088 123.463 333.318 125.589C332.082 125.028 330.758 124.686 329.405 124.58C328.303 124.58 327.216 124.836 326.229 125.328C325.084 121.529 324.029 118.036 323.281 115.529C323.258 121.812 314.048 127.29 304 126.497C303.637 126.27 307.277 115.937 306.926 115.699C306.121 115.166 305.338 114.588 304.555 114.021C307.844 108.939 311.417 103.495 310.805 102.679C310.85 103.688 307.243 108.543 303.319 113.125C301.141 111.525 313.515 85.5074 307.402 83.3979C307.3 84.3165 305.95 84.3165 304.306 84.1238C303.872 82.608 303.227 81.1609 302.389 79.8252C302.498 81.1707 302.336 82.5243 301.913 83.8061C300.289 83.8066 298.669 83.9777 297.081 84.3165C296.714 83.7383 296.308 83.1851 295.868 82.6606C295.911 83.2999 295.892 83.9418 295.811 84.5774C294.189 84.929 292.851 85.3373 292.658 85.6662C291.388 85.2012 293.554 83.103 292.76 82.0141C290.741 79.2922 293.735 75.3225 295.629 72.5097C299.52 66.7482 308.06 64.752 314.105 68.2112C314.377 67.2698 315.772 66.6461 317.564 66.2264C318.324 66.059 319.101 65.9866 319.878 66.0109C327.59 66.147 338.297 72.5097 338.717 80.2108C338.751 80.9821 338.807 81.8214 338.864 82.7173C339.409 91.3371 338.739 99.2877 344.626 105.594C346.758 107.873 346.781 118.671 345.964 124.228C343.843 121.994 342.335 113.306 339.272 112.977Z" fill="#2F2E41"/>
<path d="M382.945 419.363C383.271 419.378 383.593 419.292 383.869 419.118C384.144 418.943 384.359 418.688 384.485 418.388C384.611 418.087 384.641 417.755 384.572 417.436C384.503 417.117 384.337 416.828 384.098 416.607L383.989 416.173C384.003 416.139 384.017 416.104 384.032 416.069C384.36 415.295 384.91 414.634 385.612 414.17C386.315 413.707 387.138 413.461 387.98 413.464C388.821 413.467 389.643 413.719 390.342 414.188C391.041 414.657 391.586 415.321 391.908 416.099C393.197 419.201 394.837 422.309 395.241 425.59C395.419 427.04 395.343 428.51 395.019 429.934C398.045 423.334 399.616 416.161 399.626 408.9C399.627 407.078 399.525 405.257 399.323 403.447C399.155 401.962 398.923 400.488 398.626 399.025C397.004 391.086 393.522 383.644 388.466 377.312C386.019 375.976 384.04 373.923 382.795 371.428C382.345 370.532 382.026 369.574 381.85 368.586C382.126 368.623 382.891 364.418 382.682 364.16C383.067 363.577 383.756 363.286 384.176 362.717C386.265 359.884 389.144 360.378 390.647 364.228C393.858 365.849 393.889 368.536 391.919 371.121C390.666 372.765 390.493 374.99 389.394 376.75C389.507 376.895 389.624 377.036 389.738 377.18C391.806 379.84 393.608 382.695 395.119 385.707C394.752 382.333 395.191 378.921 396.399 375.75C397.624 372.795 399.92 370.307 401.942 367.752C402.477 367.066 403.203 366.554 404.029 366.28C404.854 366.006 405.743 365.984 406.581 366.215C407.42 366.446 408.171 366.921 408.74 367.579C409.309 368.237 409.671 369.049 409.778 369.913C409.782 369.95 409.786 369.988 409.79 370.026C409.49 370.195 409.196 370.375 408.908 370.565C408.547 370.806 408.267 371.151 408.105 371.555C407.943 371.958 407.907 372.401 408.001 372.825C408.095 373.249 408.315 373.635 408.632 373.932C408.949 374.229 409.348 374.424 409.778 374.49L409.822 374.497C409.715 375.579 409.526 376.652 409.256 377.705C411.85 387.736 406.25 391.389 398.255 391.553C398.078 391.644 397.906 391.734 397.73 391.82C399.248 396.123 400.2 400.605 400.563 405.153C400.768 407.836 400.756 410.531 400.526 413.213L400.54 413.118C401.119 410.136 402.71 407.446 405.043 405.501C408.508 402.655 413.404 401.606 417.142 399.318C417.54 399.063 418.002 398.927 418.474 398.926C418.946 398.925 419.408 399.059 419.807 399.312C420.206 399.565 420.523 399.927 420.723 400.355C420.923 400.782 420.996 401.258 420.934 401.726L420.919 401.826C420.361 402.053 419.819 402.315 419.294 402.609C418.994 402.779 418.7 402.959 418.412 403.149C418.051 403.39 417.771 403.735 417.609 404.138C417.447 404.542 417.41 404.984 417.504 405.409C417.598 405.833 417.818 406.219 418.135 406.516C418.453 406.813 418.852 407.008 419.282 407.074L419.326 407.081C419.357 407.085 419.384 407.09 419.416 407.094C418.464 409.368 417.127 411.46 415.465 413.281C413.843 422.037 406.878 422.868 399.427 420.318H399.422C398.605 423.87 397.42 427.328 395.888 430.636H383.262C383.216 430.496 383.176 430.351 383.135 430.211C384.304 430.284 385.477 430.214 386.629 430.002C385.692 428.853 384.755 427.694 383.818 426.545C383.797 426.523 383.778 426.501 383.759 426.477C383.284 425.889 382.804 425.305 382.329 424.717L382.329 424.716C382.304 422.913 382.511 421.113 382.945 419.363Z" fill="#F2F2F2"/>
<path d="M241.725 430.673C241.724 430.783 241.746 430.892 241.787 430.993C241.829 431.094 241.891 431.186 241.968 431.264C242.046 431.341 242.138 431.403 242.239 431.444C242.34 431.486 242.449 431.508 242.558 431.507H420.031C420.252 431.507 420.464 431.419 420.621 431.263C420.777 431.107 420.865 430.895 420.865 430.673C420.865 430.452 420.777 430.24 420.621 430.084C420.464 429.927 420.252 429.84 420.031 429.84H242.558C242.449 429.839 242.34 429.861 242.239 429.902C242.138 429.944 242.046 430.006 241.968 430.083C241.891 430.161 241.829 430.253 241.787 430.354C241.746 430.455 241.724 430.564 241.725 430.673Z" fill="#CCCCCC"/>
<path d="M326.327 250.773L289.577 284.873L241.67 270.097L230.514 221.22L267.264 187.12L315.171 201.896L326.327 250.773Z" fill="#F2F2F2"/>
<path d="M265.227 225.465C264.688 224.514 264.365 223.456 264.279 222.367C264.193 221.277 264.347 220.182 264.731 219.158C265.114 218.135 265.717 217.208 266.498 216.443C267.278 215.677 268.217 215.092 269.248 214.729L298.96 153.2L310.024 161.211L279.031 219.78C279.526 221.552 279.354 223.444 278.548 225.098C277.741 226.752 276.356 228.053 274.654 228.754C272.953 229.455 271.053 229.507 269.316 228.901C267.578 228.295 266.123 227.072 265.227 225.465Z" fill="#A0616A"/>
<path d="M311.648 134.087C308.904 133.814 306.14 134.345 303.692 135.614C301.245 136.884 299.219 138.838 297.862 141.238L285.678 162.79C285.678 162.79 312.418 174.6 318.823 166.136C321.523 162.569 323.194 156.567 324.224 150.816C324.577 148.882 324.526 146.896 324.074 144.983C323.622 143.069 322.779 141.27 321.598 139.699C320.416 138.127 318.922 136.818 317.21 135.852C315.498 134.886 313.604 134.285 311.648 134.087Z" fill="#3F3D56"/>
<path d="M235.529 126.102V186.647C235.526 188.289 234.872 189.863 233.711 191.024C232.551 192.185 230.977 192.838 229.335 192.841H182.895L183.322 192.295C207.754 175.983 225.068 154.22 234.982 126.796L235.529 126.102Z" fill="#53389E"/>
<path d="M39.6923 170.42L26.9492 192.491H52.4347L39.6923 170.42L26.9492 192.491H52.4347L39.6923 170.42Z" fill="#F2F2F2"/>
<path d="M136.135 274.399C159.48 274.399 178.404 255.474 178.404 232.129C178.404 208.785 159.48 189.86 136.135 189.86C112.79 189.86 93.8652 208.785 93.8652 232.129C93.8652 255.474 112.79 274.399 136.135 274.399Z" fill="#F2F2F2"/>
</g>
<defs>
<clipPath id="clip0_146_1323">
<rect width="420.962" height="431.015" fill="white" transform="translate(0 0.492432)"/>
</clipPath>
</defs>
</svg>
