<svg width="19" height="19" viewBox="0 0 19 19" fill="none" xmlns="http://www.w3.org/2000/svg">
<path d="M10.2939 1.42786V1.78146V3.63922C10.2939 4.59928 10.2947 5.3421 10.3722 5.91916C10.4522 6.51336 10.6162 6.96366 10.9683 7.31576C11.3203 7.6678 11.7714 7.83184 12.364 7.91186C12.9428 7.98933 13.6849 7.99017 14.644 7.99017H17.2645H17.5763L17.6655 8.28896C17.8247 8.82172 17.8287 9.50658 17.8287 10.7638V11.1297C17.8287 12.7144 17.8279 13.882 17.7078 14.7762C17.5885 15.6651 17.3539 16.2537 16.9091 16.6984C16.4644 17.1431 15.8759 17.3778 14.9877 17.4971L14.9877 17.4971C14.0927 17.6173 12.9251 17.618 11.3404 17.618H7.99157H7.98865C6.40608 17.618 5.23981 17.618 4.34511 17.4971C3.45613 17.3778 2.86786 17.1432 2.4232 16.6996L2.4225 16.6989C1.97811 16.2535 1.74346 15.6653 1.62415 14.7762C1.50401 13.8812 1.50322 12.7144 1.50322 11.1305V7.78171C1.50322 6.19617 1.50401 5.02938 1.62415 4.13442C1.74344 3.24545 1.97808 2.65693 2.42285 2.21215L2.4232 2.2118C2.86794 1.76812 3.45714 1.53271 4.35117 1.41343L10.2939 1.42786ZM10.2939 1.42786L9.94526 1.36874M10.2939 1.42786L9.94526 1.36874M9.94526 1.36874C9.51711 1.29614 8.94939 1.29253 8.01668 1.29253M9.94526 1.36874L8.01668 1.29253M12.5578 2.56689L12.5572 2.56638C11.681 1.77741 11.1874 1.34081 10.5859 1.10983C9.98431 0.879694 9.32183 0.873925 8.13808 0.873925H7.9698C6.41166 0.873925 5.21943 0.874783 4.29574 0.998296L12.5578 2.56689ZM12.5578 2.56689L12.6468 2.6468L12.6473 2.64726L15.9605 5.62977L15.9612 5.63042M12.5578 2.56689L15.9612 5.63042M15.9612 5.63042L16.0653 5.72364C16.0654 5.72374 16.0655 5.72384 16.0656 5.72394C17.0781 6.63468 17.6391 7.14962 17.9394 7.82458L17.9395 7.82493M15.9612 5.63042L17.9395 7.82493M17.9395 7.82493C18.2405 8.5 18.2482 9.26151 18.2473 10.6229V10.6232M17.9395 7.82493L18.2473 10.6232M18.2473 10.6232V11.1766M18.2473 10.6232V11.1766M8.01668 1.29253C6.42368 1.29253 5.24949 1.29332 4.3513 1.41341L8.01668 1.29253ZM18.2473 11.1766C18.2473 12.7264 18.2465 13.9126 18.123 14.832L18.2473 11.1766ZM17.2056 16.9945C17.7409 16.4582 17.9969 15.7669 18.123 14.8322L17.2056 16.9945ZM17.2056 16.9945C16.6692 17.5301 15.9777 17.7863 15.0427 17.9123M17.2056 16.9945L15.0427 17.9123M15.0427 17.9123C14.1224 18.0358 12.937 18.0366 11.3873 18.0366M15.0427 17.9123L11.3873 18.0366M11.3873 18.0366H7.94468M11.3873 18.0366H7.94468M7.94468 18.0366C6.39488 18.0366 5.20864 18.0358 4.28928 17.9123L7.94468 18.0366ZM11.4007 2.11089L10.7125 1.53156V2.43113V3.59484C10.7125 4.58754 10.7133 5.31057 10.7873 5.86308C10.8605 6.41005 11.0029 6.75873 11.2646 7.01948C11.5253 7.28111 11.874 7.42352 12.4208 7.4967C12.9734 7.57078 13.6964 7.57157 14.6892 7.57157H16.3804H17.427L16.669 6.84981C16.3446 6.54087 16.0148 6.23757 15.6798 5.94006C15.6795 5.93975 15.6791 5.93945 15.6788 5.93915L12.3688 2.9602C12.3684 2.95983 12.3679 2.95945 12.3675 2.95908C12.051 2.66981 11.7287 2.38702 11.4007 2.11089ZM1.08462 7.73399C1.08462 6.18419 1.08548 4.99795 1.20896 4.07858L4.28908 17.9123C3.3544 17.7862 2.66301 17.5302 2.12676 16.9949C1.59114 16.4586 1.33501 15.767 1.20896 14.832C1.08548 13.9118 1.08462 12.7263 1.08462 11.1766V7.73399ZM1.20898 4.07839C1.33503 3.14359 1.59111 2.45215 2.12657 1.91587C2.66333 1.37993 3.35603 1.12447 4.29554 0.998323L1.20898 4.07839Z" fill="#475467" stroke="#475467" stroke-width="0.837206"/>
<path d="M8.11451 11.796L8.1313 11.8109C8.17274 11.8477 8.19787 11.8995 8.20117 11.9549C8.20446 12.0102 8.18571 12.0645 8.14904 12.106C8.14898 12.106 8.14893 12.1061 8.14888 12.1062L5.91649 14.6173C5.91648 14.6173 5.91648 14.6173 5.91647 14.6173C5.89684 14.6394 5.87275 14.657 5.8458 14.6692C5.81884 14.6813 5.78962 14.6875 5.76007 14.6875C5.73051 14.6875 5.7013 14.6813 5.67434 14.6692C5.64738 14.657 5.62329 14.6394 5.60365 14.6173L5.60361 14.6172L4.48703 13.3617C4.48699 13.3617 4.48694 13.3616 4.4869 13.3616C4.4687 13.341 4.45473 13.3171 4.44575 13.2912C4.43675 13.2652 4.43296 13.2377 4.4346 13.2102C4.43623 13.1828 4.44326 13.1559 4.45527 13.1312L4.07873 12.9483L4.45527 13.1312C4.46728 13.1065 4.48405 13.0843 4.50462 13.0661L4.23346 12.7606L4.50462 13.0661C4.52519 13.0478 4.54915 13.0338 4.57514 13.0248C4.60113 13.0158 4.62864 13.012 4.65609 13.0136C4.68354 13.0153 4.71041 13.0223 4.73515 13.0343C4.75986 13.0463 4.78197 13.0631 4.80022 13.0836C4.80024 13.0836 4.80026 13.0836 4.80027 13.0837L5.44654 13.812L5.75943 14.1646L6.07256 13.8122L7.83572 11.828L7.83616 11.8275C7.85441 11.8069 7.87655 11.7901 7.9013 11.7781C7.92606 11.766 7.95294 11.759 7.98042 11.7574C8.0079 11.7557 8.03543 11.7595 8.06143 11.7685L8.06667 11.7535L8.06143 11.7685C8.08038 11.7751 8.09825 11.7844 8.11451 11.796Z" fill="#475467" stroke="#475467" stroke-width="0.837206"/>
</svg>
