<svg width="28" height="28" viewBox="0 0 28 28" fill="none" xmlns="http://www.w3.org/2000/svg">
<path d="M14.0133 1V10.0911M14.0133 10.0911L16.6108 7.49366M14.0133 10.0911L11.4158 7.49366M1 15.286H6.72741C7.22092 15.286 7.66249 15.5588 7.88328 16.0004L9.40279 19.0394C9.61783 19.4721 9.94933 19.8363 10.36 20.091C10.7707 20.3457 11.2443 20.4807 11.7275 20.481H16.312C16.7953 20.4807 17.2689 20.3457 17.6796 20.091C18.0902 19.8363 18.4217 19.4721 18.6368 19.0394L20.1563 16.0004C20.2642 15.7862 20.4293 15.6061 20.6334 15.48C20.8374 15.3539 21.0723 15.2868 21.3122 15.286H26.9746" stroke="#53389E" stroke-width="1.9481" stroke-linecap="round" stroke-linejoin="round"/>
<path d="M7.51905 3.76636C2.92154 4.4417 1.02539 7.14306 1.02539 12.6886V17.8836C1.02539 24.3772 3.62285 26.9747 10.1165 26.9747H17.9089C24.4026 26.9747 27 24.3772 27 17.8836V12.6886C27 7.14306 25.1039 4.4417 20.5064 3.76636" stroke="#53389E" stroke-width="1.9481" stroke-linecap="round" stroke-linejoin="round"/>
</svg>
