<svg width="69" height="69" viewBox="0 0 69 69" fill="none" xmlns="http://www.w3.org/2000/svg">
<circle cx="34.5" cy="34.5" r="34.155" stroke="#D0D5DD" stroke-width="0.69"/>
<path d="M45.7125 30.225V38.775C45.7125 40.175 44.9625 41.475 43.75 42.1875L36.325 46.475C35.1125 47.175 33.6125 47.175 32.3875 46.475L24.9625 42.1875C24.3647 41.8409 23.8687 41.3431 23.5242 40.7441C23.1797 40.1451 22.9989 39.466 23 38.775V30.225C23 28.825 23.75 27.525 24.9625 26.8125L32.3875 22.525C33.6 21.825 35.1 21.825 36.325 22.525L43.75 26.8125C44.9625 27.525 45.7125 28.8125 45.7125 30.225Z" stroke="#475467" stroke-width="1.875" stroke-linecap="round" stroke-linejoin="round"/>
<path d="M39.3633 40.3248C39.3633 38.0748 37.1258 36.2498 34.3633 36.2498C31.6008 36.2498 29.3633 38.0748 29.3633 40.3248M34.3633 33.2498C35.1357 33.2498 35.8765 32.943 36.4227 32.3968C36.9689 31.8506 37.2758 31.1097 37.2758 30.3373C37.2758 29.5649 36.9689 28.8241 36.4227 28.2779C35.8765 27.7317 35.1357 27.4248 34.3633 27.4248C33.5908 27.4248 32.85 27.7317 32.3038 28.2779C31.7576 28.8241 31.4508 29.5649 31.4508 30.3373C31.4508 31.1097 31.7576 31.8506 32.3038 32.3968C32.85 32.943 33.5908 33.2498 34.3633 33.2498Z" stroke="#475467" stroke-width="1.875" stroke-linecap="round" stroke-linejoin="round"/>
</svg>
