<svg width="25" height="29" viewBox="0 0 25 29" fill="none" xmlns="http://www.w3.org/2000/svg">
<path d="M8.25441 15.5088L16.1683 7.59492M5.26032 24.346C6.34188 23.1853 7.99061 23.2776 8.94028 24.5439L10.2725 26.3245C11.3408 27.7358 13.0687 27.7358 14.1371 26.3245L15.4693 24.5439C16.4189 23.2776 18.0677 23.1853 19.1492 24.346C21.497 26.8521 23.4095 26.0211 23.4095 22.5126V7.64768C23.4227 2.33217 22.1829 1 17.1971 1H7.2256C2.23985 1 1 2.33217 1 7.64768V22.4994C1 26.0211 2.92572 26.8389 5.26032 24.346Z" stroke="#53389E" stroke-width="1.97848" stroke-linecap="round" stroke-linejoin="round"/>
<path d="M16.1619 15.5088H16.1738M8.24805 8.25439H8.2586" stroke="#53389E" stroke-width="2.63797" stroke-linecap="round" stroke-linejoin="round"/>
</svg>
