<svg width="13" height="16" viewBox="0 0 13 16" fill="none" xmlns="http://www.w3.org/2000/svg">
<path d="M12.2815 7.19729C12.162 7.31278 12.0024 7.37734 11.8363 7.37734C11.6701 7.37734 11.5105 7.31278 11.391 7.19729L6.8374 2.63584V14.8752C6.8374 15.0409 6.77157 15.1999 6.65438 15.3171C6.5372 15.4342 6.37826 15.5001 6.21254 15.5001C6.04682 15.5001 5.88788 15.4342 5.7707 15.3171C5.65352 15.1999 5.58768 15.0409 5.58768 14.8752V2.63584L1.03404 7.19729C0.912634 7.29693 0.758505 7.34786 0.601633 7.34015C0.444761 7.33245 0.296363 7.26667 0.185304 7.15561C0.0742457 7.04455 0.00846676 6.89615 0.000762231 6.73928C-0.0069423 6.58241 0.0439785 6.42828 0.14362 6.30687L5.76733 0.683161C5.8858 0.565825 6.0458 0.5 6.21254 0.5C6.37928 0.5 6.53928 0.565825 6.65775 0.683161L12.2815 6.30687C12.3988 6.42534 12.4646 6.58534 12.4646 6.75208C12.4646 6.91882 12.3988 7.07882 12.2815 7.19729Z" fill="white"/>
</svg>
