<svg width="20" height="20" viewBox="0 0 20 20" fill="none" xmlns="http://www.w3.org/2000/svg">
<path d="M18.666 3.95532H1.66602M16.999 6.45532L16.539 13.3553C16.362 16.0093 16.274 17.3363 15.409 18.1453C14.544 18.9553 13.213 18.9553 10.553 18.9553H9.77902C7.11902 18.9553 5.78802 18.9553 4.92302 18.1453C4.05802 17.3363 3.96902 16.0093 3.79302 13.3553L3.33302 6.45532" stroke="#475467" stroke-width="1.5" stroke-linecap="round"/>
<path d="M4.66602 3.95532H4.77602C5.17846 3.94504 5.56844 3.81354 5.89494 3.57803C6.22144 3.34252 6.46927 3.01396 6.60602 2.63532L6.64002 2.53232L6.73702 2.24132C6.82002 1.99232 6.86202 1.86832 6.91702 1.76232C7.02522 1.55471 7.18052 1.37531 7.37049 1.23848C7.56046 1.10165 7.77982 1.01118 8.01102 0.974322C8.12802 0.955322 8.25902 0.955322 8.52102 0.955322H11.811C12.073 0.955322 12.204 0.955322 12.321 0.974322C12.5522 1.01118 12.7716 1.10165 12.9615 1.23848C13.1515 1.37531 13.3068 1.55471 13.415 1.76232C13.47 1.86832 13.512 1.99232 13.595 2.24132L13.692 2.53232C13.8187 2.9536 14.0808 3.32133 14.4377 3.57858C14.7946 3.83584 15.2263 3.96825 15.666 3.95532" stroke="#475467" stroke-width="1.5"/>
</svg>
