<svg width="20" height="13" viewBox="0 0 20 13" fill="none" xmlns="http://www.w3.org/2000/svg">
<path d="M12 9.5H19M1 9.5H3M3 9.5C3 10.163 3.26339 10.7989 3.73223 11.2678C4.20107 11.7366 4.83696 12 5.5 12C6.16304 12 6.79893 11.7366 7.26777 11.2678C7.73661 10.7989 8 10.163 8 9.5C8 8.83696 7.73661 8.20107 7.26777 7.73223C6.79893 7.26339 6.16304 7 5.5 7C4.83696 7 4.20107 7.26339 3.73223 7.73223C3.26339 8.20107 3 8.83696 3 9.5ZM18 3.5H19M1 3.5H8M14.5 6C13.837 6 13.2011 5.73661 12.7322 5.26777C12.2634 4.79893 12 4.16304 12 3.5C12 2.83696 12.2634 2.20107 12.7322 1.73223C13.2011 1.26339 13.837 1 14.5 1C15.163 1 15.7989 1.26339 16.2678 1.73223C16.7366 2.20107 17 2.83696 17 3.5C17 4.16304 16.7366 4.79893 16.2678 5.26777C15.7989 5.73661 15.163 6 14.5 6Z" stroke="#475467" stroke-width="2" stroke-linecap="round" stroke-linejoin="round"/>
</svg>
