<svg width="26" height="27" viewBox="0 0 26 27" fill="none" xmlns="http://www.w3.org/2000/svg">
<path d="M20.3669 25.1725C19.3109 25.4845 18.0629 25.6285 16.5989 25.6285H9.39886C7.93486 25.6285 6.68686 25.4845 5.63086 25.1725C5.89486 22.0525 9.09886 19.5925 12.9989 19.5925C16.8989 19.5925 20.1029 22.0525 20.3669 25.1725Z" stroke="#667085" stroke-width="1.8" stroke-linecap="round" stroke-linejoin="round"/>
<path d="M16.6 1.62866H9.4C3.4 1.62866 1 4.02866 1 10.0287V17.2287C1 21.7647 2.368 24.2487 5.632 25.1727C5.896 22.0527 9.1 19.5927 13 19.5927C16.9 19.5927 20.104 22.0527 20.368 25.1727C23.632 24.2487 25 21.7647 25 17.2287V10.0287C25 4.02866 22.6 1.62866 16.6 1.62866ZM13 16.2327C10.624 16.2327 8.704 14.3007 8.704 11.9247C8.704 9.54866 10.624 7.62866 13 7.62866C15.376 7.62866 17.296 9.54866 17.296 11.9247C17.296 14.3007 15.376 16.2327 13 16.2327Z" stroke="#667085" stroke-width="1.8" stroke-linecap="round" stroke-linejoin="round"/>
<path d="M17.2951 11.9247C17.2951 14.3007 15.3751 16.2327 12.9991 16.2327C10.6231 16.2327 8.70312 14.3007 8.70312 11.9247C8.70312 9.54866 10.6231 7.62866 12.9991 7.62866C15.3751 7.62866 17.2951 9.54866 17.2951 11.9247Z" stroke="#667085" stroke-width="1.8" stroke-linecap="round" stroke-linejoin="round"/>
</svg>
