<svg width="32" height="32" viewBox="0 0 32 32" fill="none" xmlns="http://www.w3.org/2000/svg">
<path d="M31.5095 16.178C31.5095 15.103 31.4223 14.0223 31.2362 12.9647H16.3203V19.0543H24.862C24.5075 21.0183 23.3687 22.7558 21.701 23.8597V27.8109H26.797C29.7895 25.0567 31.5095 20.9893 31.5095 16.178Z" fill="#4285F4"/>
<path d="M16.3191 31.6286C20.5841 31.6286 24.181 30.2282 26.8014 27.8109L21.7056 23.8596C20.2877 24.8243 18.4574 25.3705 16.3249 25.3705C12.1993 25.3705 8.70127 22.5871 7.44617 18.8451H2.1875V22.9183C4.87204 28.2585 10.3399 31.6286 16.3191 31.6286Z" fill="#34A853"/>
<path d="M7.44089 18.845C6.77847 16.881 6.77847 14.7543 7.44089 12.7903V8.71704H2.18805C-0.054871 13.1855 -0.054871 18.4499 2.18805 22.9182L7.44089 18.845Z" fill="#FBBC04"/>
<path d="M16.3191 6.25916C18.5736 6.2243 20.7526 7.07264 22.3854 8.62993L26.9003 4.11501C24.0415 1.43049 20.2471 -0.0454196 16.3191 0.00106567C10.3399 0.00106567 4.87204 3.37126 2.1875 8.71708L7.44035 12.7904C8.68963 9.04247 12.1935 6.25916 16.3191 6.25916Z" fill="#EA4335"/>
</svg>
