<svg width="100" height="92" viewBox="0 0 100 92" fill="none" xmlns="http://www.w3.org/2000/svg">
<rect x="0.5" y="0.5" width="99" height="91" rx="11.5" fill="white" stroke="#D0D5DD"/>
<path d="M59.7004 50.96L56.5704 43.65C55.5104 41.17 53.5604 41.07 52.2504 43.43L50.3604 46.84C49.4004 48.57 47.6104 48.72 46.3704 47.17L46.1504 46.89C44.8604 45.27 43.0404 45.47 42.1104 47.32L40.3904 50.77C39.1804 53.17 40.9304 56 43.6104 56H56.3704C58.9704 56 60.7204 53.35 59.7004 50.96ZM44.9904 42C45.7861 42 46.5491 41.6839 47.1118 41.1213C47.6744 40.5587 47.9904 39.7956 47.9904 39C47.9904 38.2044 47.6744 37.4413 47.1118 36.8787C46.5491 36.3161 45.7861 36 44.9904 36C44.1948 36 43.4317 36.3161 42.8691 36.8787C42.3065 37.4413 41.9904 38.2044 41.9904 39C41.9904 39.7956 42.3065 40.5587 42.8691 41.1213C43.4317 41.6839 44.1948 42 44.9904 42Z" stroke="black" stroke-width="1.5" stroke-linecap="round" stroke-linejoin="round"/>
</svg>
