<svg width="26" height="26" viewBox="0 0 26 26" fill="none" xmlns="http://www.w3.org/2000/svg">
<path d="M6.65282 16.2278L1.59542 11.1704C1.35746 10.9327 1.18228 10.6396 1.08563 10.3174C0.988975 9.99527 0.973879 9.65413 1.04169 9.32468C1.10739 8.96244 1.26864 8.62432 1.50876 8.34526C1.74888 8.06619 2.05917 7.85632 2.40756 7.73732L22.2126 1.12948C22.5837 0.991578 22.9866 0.963124 23.3734 1.04751C23.7602 1.13189 24.1146 1.32555 24.3945 1.60549C24.6744 1.88542 24.8681 2.23984 24.9525 2.62663C25.0369 3.01342 25.0084 3.4163 24.8705 3.78739L18.2627 23.5924C18.1516 23.9292 17.9557 24.2318 17.6938 24.471C17.432 24.7102 17.113 24.878 16.7676 24.9583C16.4243 25.0427 16.0649 25.036 15.725 24.9389C15.3851 24.8418 15.0764 24.6576 14.8296 24.4046L10.8058 20.3993L6.4867 22.6326L6.65282 16.2278ZM6.65282 16.2278L24.2799 1.53555" stroke="currentColor" stroke-width="1.84576" stroke-linecap="round" stroke-linejoin="round"/>
</svg>
