<svg width="24" height="27" viewBox="0 0 24 27" fill="none" xmlns="http://www.w3.org/2000/svg">
<path d="M3.96136 13.883C3.7885 13.71 3.69141 13.4753 3.69141 13.2307C3.69141 12.9861 3.7885 12.7515 3.96136 12.5784L6.4229 10.1169C6.59789 9.95383 6.82933 9.86507 7.06847 9.86928C7.30761 9.8735 7.53577 9.97038 7.7049 10.1395C7.87402 10.3086 7.9709 10.5368 7.97512 10.7759C7.97934 11.0151 7.89057 11.2465 7.72752 11.4215L6.84136 12.3077H15.6906C15.9354 12.3077 16.1702 12.4049 16.3433 12.578C16.5164 12.7511 16.6137 12.9859 16.6137 13.2307C16.6137 13.4755 16.5164 13.7103 16.3433 13.8834C16.1702 14.0566 15.9354 14.1538 15.6906 14.1538H6.84136L7.72752 15.04C7.81821 15.1245 7.89095 15.2264 7.9414 15.3396C7.99185 15.4528 8.01898 15.5751 8.02117 15.699C8.02336 15.823 8.00056 15.9461 7.95413 16.061C7.9077 16.1759 7.8386 16.2804 7.75095 16.368C7.66329 16.4557 7.55888 16.5248 7.44395 16.5712C7.32901 16.6176 7.20589 16.6404 7.08195 16.6382C6.95801 16.636 6.83578 16.6089 6.72255 16.5585C6.60932 16.508 6.50741 16.4353 6.4229 16.3446L3.96136 13.883Z" fill="#475467"/>
<path fill-rule="evenodd" clip-rule="evenodd" d="M14.3938 0H15.76C17.4437 0 18.8 -2.98023e-08 19.8671 0.144C20.9748 0.291692 21.9077 0.611692 22.6486 1.35138C23.3895 2.09231 23.7071 3.02523 23.8572 4.13292C24 5.2 24 6.55754 24 8.24V18.2215C24 19.904 24 21.2615 23.8572 22.3286C23.7083 23.4363 23.3895 24.3692 22.6486 25.1102C21.9077 25.8511 20.9748 26.1686 19.8671 26.3188C18.8 26.4615 17.4425 26.4615 15.76 26.4615H14.3938C12.7114 26.4615 11.3538 26.4615 10.2868 26.3188C9.17908 26.1686 8.24615 25.8511 7.50523 25.1102C7.01538 24.6178 6.70892 24.0418 6.51446 23.3846C5.344 23.3834 4.368 23.3698 3.57785 23.264C2.63754 23.1372 1.82277 22.864 1.17169 22.2129C0.520615 21.5618 0.247385 20.7483 0.120615 19.8068C6.70552e-08 18.9083 0 17.7686 0 16.3729V10.0886C0 8.69415 6.70552e-08 7.55569 0.120615 6.65477C0.247385 5.71569 0.520615 4.90092 1.17169 4.24985C1.82277 3.59877 2.63631 3.32554 3.57785 3.19877C4.368 3.09292 5.344 3.07938 6.51446 3.07815C6.70892 2.42092 7.01538 1.84369 7.50646 1.35262C8.24615 0.611692 9.18031 0.294154 10.288 0.145231C11.3538 0.00123081 12.7114 0.00123083 14.3938 0.00123083V0ZM6.15631 19.3895C6.16123 20.1834 6.17354 20.8972 6.21785 21.5372C5.19138 21.5335 4.42831 21.5151 3.824 21.4338C3.088 21.3354 2.72862 21.1582 2.47754 20.9071C2.22646 20.6572 2.04923 20.2966 1.95077 19.5606C1.84862 18.7988 1.84615 17.7846 1.84615 16.3077V10.1538C1.84615 8.67692 1.84862 7.66277 1.95077 6.90092C2.04923 6.16492 2.22646 5.80554 2.47754 5.55446C2.72738 5.30338 3.088 5.12615 3.824 5.02769C4.42831 4.94646 5.19138 4.92923 6.21908 4.92431C6.17354 5.56431 6.16123 6.27815 6.15631 7.072C6.155 7.31681 6.251 7.55212 6.42319 7.72616C6.59538 7.90019 6.82965 7.99869 7.07446 8C7.31928 8.00131 7.55458 7.9053 7.72862 7.73312C7.90265 7.56093 8.00116 7.32666 8.00246 7.08185C8.00985 5.73662 8.04431 4.78277 8.17723 4.05785C8.30646 3.36123 8.512 2.95631 8.81108 2.65723C9.152 2.31631 9.63077 2.09477 10.5342 1.97292C11.4634 1.84862 12.6954 1.84615 14.4615 1.84615H15.6923C17.4597 1.84615 18.6917 1.84862 19.6209 1.97292C20.5243 2.09477 21.0018 2.31754 21.344 2.65723C21.6837 2.99815 21.9052 3.47569 22.0271 4.38031C22.1526 5.30831 22.1538 6.54154 22.1538 8.30769V18.1538C22.1538 19.92 22.1526 21.152 22.0271 22.0825C21.9052 22.9858 21.6837 23.4634 21.3428 23.8043C21.0018 24.1452 20.5243 24.3668 19.6209 24.4886C18.6917 24.6129 17.4597 24.6154 15.6923 24.6154H14.4615C12.6954 24.6154 11.4634 24.6129 10.5329 24.4886C9.63077 24.3668 9.152 24.144 8.81108 23.8043C8.512 23.504 8.30646 23.1003 8.17723 22.4037C8.04431 21.6788 8.00985 20.7249 8.00246 19.3797C8.00181 19.2585 7.9773 19.1386 7.93031 19.0268C7.88333 18.9151 7.81479 18.8137 7.72862 18.7284C7.64245 18.6432 7.54032 18.5757 7.42808 18.5299C7.31584 18.4841 7.19568 18.4609 7.07446 18.4615C6.95324 18.4622 6.83334 18.4867 6.72159 18.5337C6.60984 18.5807 6.50845 18.6492 6.42319 18.7354C6.33793 18.8216 6.27048 18.9237 6.22469 19.0359C6.1789 19.1482 6.15566 19.2683 6.15631 19.3895Z" fill="#475467"/>
</svg>
