<svg width="47" height="47" viewBox="0 0 47 47" fill="none" xmlns="http://www.w3.org/2000/svg">
<circle cx="23.5" cy="23.5" r="23.5" fill="#53389E"/>
<circle cx="32.5" cy="31.5" r="2.5" fill="white"/>
<path d="M26.5612 37.28L24.0412 33.2C23.6252 32.576 22.9372 32.264 21.9772 32.264C20.3132 32.248 18.8572 31.88 17.6092 31.16C16.3612 30.44 15.3852 29.424 14.6812 28.112C13.9932 26.8 13.6492 25.272 13.6492 23.528C13.6492 21.768 13.9932 20.24 14.6812 18.944C15.3852 17.632 16.3612 16.616 17.6092 15.896C18.8572 15.176 20.3212 14.816 22.0012 14.816C23.6812 14.816 25.1452 15.176 26.3932 15.896C27.6572 16.616 28.6332 17.632 29.3212 18.944C30.0252 20.24 30.3772 21.76 30.3772 23.504C30.3772 25.344 29.9932 26.944 29.2252 28.304C28.4732 29.648 27.4252 30.656 26.0812 31.328C26.8172 31.552 27.4252 32.072 27.9052 32.888L29.7292 35.816L26.5612 37.28ZM22.0012 29.096C23.4092 29.096 24.5052 28.608 25.2892 27.632C26.0892 26.64 26.4892 25.272 26.4892 23.528C26.4892 21.768 26.0972 20.408 25.3132 19.448C24.5292 18.472 23.4252 17.984 22.0012 17.984C20.6092 17.984 19.5132 18.472 18.7132 19.448C17.9292 20.408 17.5372 21.768 17.5372 23.528C17.5372 25.272 17.9292 26.64 18.7132 27.632C19.5132 28.608 20.6092 29.096 22.0012 29.096Z" fill="white"/>
</svg>
