<svg width="20" height="4" viewBox="0 0 20 4" fill="none" xmlns="http://www.w3.org/2000/svg">
<path d="M2.00002 4.00005C3.10461 4.00005 4.00005 3.10461 4.00005 2.00002C4.00005 0.895441 3.10461 0 2.00002 0C0.895441 0 0 0.895441 0 2.00002C0 3.10461 0.895441 4.00005 2.00002 4.00005Z" fill="#475467"/>
<path d="M10 4.00005C11.1046 4.00005 12 3.10461 12 2.00002C12 0.895441 11.1046 0 10 0C8.89544 0 8 0.895441 8 2.00002C8 3.10461 8.89544 4.00005 10 4.00005Z" fill="#475467"/>
<path d="M18 4.00005C19.1046 4.00005 20 3.10461 20 2.00002C20 0.895441 19.1046 0 18 0C16.8954 0 16 0.895441 16 2.00002C16 3.10461 16.8954 4.00005 18 4.00005Z" fill="#475467"/>
</svg>
