<svg width="21" height="25" viewBox="0 0 21 25" fill="none" xmlns="http://www.w3.org/2000/svg">
<path d="M13.9932 19.1974V20.0481C13.9932 20.9505 13.6347 21.816 12.9966 22.4541C12.3585 23.0923 11.493 23.4508 10.5905 23.4508C9.68809 23.4508 8.8226 23.0923 8.18448 22.4541C7.54635 21.816 7.18786 20.9505 7.18786 20.0481V19.1974M19.7182 17.4658C18.3529 15.7947 17.389 14.9441 17.389 10.3372C17.389 6.11839 15.2347 4.61536 13.4615 3.88538C13.226 3.78862 13.0043 3.56638 12.9325 3.32447C12.6215 2.26592 11.7496 1.33337 10.5905 1.33337C9.4315 1.33337 8.55903 2.26645 8.2512 3.32553C8.17942 3.5701 7.95771 3.78862 7.72219 3.88538C5.94695 4.61642 3.79475 6.11413 3.79475 10.3372C3.7921 14.9441 2.82818 15.7947 1.46286 17.4658C0.897165 18.158 1.39268 19.1974 2.38211 19.1974H18.8043C19.7884 19.1974 20.2807 18.1548 19.7182 17.4658Z" stroke="#101828" stroke-width="1.914" stroke-linecap="round" stroke-linejoin="round"/>
</svg>
