<svg width="427" height="446" viewBox="0 0 427 446" fill="none" xmlns="http://www.w3.org/2000/svg">
<g clip-path="url(#clip0_146_1150)">
<path d="M215.755 445.76C303.122 445.76 373.947 433.233 373.947 417.78C373.947 402.327 303.122 389.801 215.755 389.801C128.387 389.801 57.5625 402.327 57.5625 417.78C57.5625 433.233 128.387 445.76 215.755 445.76Z" fill="#3F3D56"/>
<path d="M83.9199 154.237C83.9199 113.475 143.69 80.4312 217.42 80.4312C291.15 80.4312 350.92 113.475 350.92 154.237" stroke="#3F3D56" stroke-width="1.07614" stroke-miterlimit="10"/>
<path d="M259.396 108.849H150.787C129.305 72.6461 129.305 36.4429 150.787 0.239746H259.396C229.36 36.4429 229.36 72.6461 259.396 108.849Z" fill="#E6E6E6"/>
<path d="M227.501 13.1692H166.301V20.927H227.501V13.1692Z" fill="#53389E"/>
<path d="M227.505 38.5979H146.479V41.1838H227.505V38.5979Z" fill="white"/>
<path d="M227.505 51.9585H146.479V54.5444H227.505V51.9585Z" fill="white"/>
<path d="M227.505 65.3193H146.479V67.9053H227.505V65.3193Z" fill="white"/>
<path d="M302.756 349.263C302.756 383.708 324.365 411.58 351.069 411.58L302.756 349.263Z" fill="#3F3D56"/>
<path d="M351.072 411.58C351.072 376.748 375.187 348.562 404.987 348.562L351.072 411.58Z" fill="#53389E"/>
<path d="M320.262 352.385C320.262 385.104 334.041 411.58 351.07 411.58L320.262 352.385Z" fill="#53389E"/>
<path d="M351.072 411.58C351.072 367.072 378.945 331.057 413.39 331.057L351.072 411.58Z" fill="#3F3D56"/>
<path d="M340.91 412.02C340.91 412.02 347.762 411.809 349.827 410.338C351.892 408.868 360.366 407.112 360.879 409.47C361.391 411.829 371.175 421.199 363.44 421.261C355.704 421.324 345.466 420.056 343.405 418.801C341.344 417.546 340.91 412.02 340.91 412.02Z" fill="#A8A8A8"/>
<path opacity="0.2" d="M363.578 420.44C355.842 420.502 345.604 419.235 343.543 417.98C341.974 417.024 341.348 413.593 341.139 412.01C340.994 412.016 340.91 412.019 340.91 412.019C340.91 412.019 341.344 417.545 343.405 418.801C345.466 420.056 355.704 421.323 363.44 421.261C365.673 421.243 366.444 420.448 366.402 419.272C366.092 419.983 365.24 420.427 363.578 420.44Z" fill="black"/>
<path d="M192.536 85.0827C193.165 85.3711 193.921 84.9411 194.292 84.3569C195.704 82.1323 193.105 79.2638 193.668 76.6898C194.118 74.6276 196.462 73.4037 196.941 71.3479C197.406 69.3503 195.972 67.0987 196.942 65.2913C197.701 63.8752 199.599 63.5026 201.186 63.7507C202.774 63.9987 204.281 64.6967 205.885 64.7945C208.022 64.9248 210.059 63.9839 212.149 63.5177C214.239 63.0516 216.788 63.2341 218.018 64.9872C219.596 67.2382 217.995 70.3727 218.545 73.0666C218.981 75.2057 220.772 76.9769 220.81 79.1598C220.824 79.9357 218.784 79.3106 218.893 80.079C219.001 80.8474 218.037 80.1708 218.808 80.0795C219.123 80.0025 219.405 79.8273 219.613 79.5793C219.821 79.3313 219.946 79.0234 219.968 78.7002C220.059 78.0602 221.262 77.8469 221.248 77.2006C221.215 75.6858 223.954 76.7071 224.405 75.2607C225.442 71.8887 225.23 68.2559 223.806 65.0281C223.191 63.6501 222.355 62.3459 222.059 60.8666C221.656 58.8581 222.289 56.702 221.626 54.764C220.732 52.1524 217.773 50.8211 215.025 50.5507C212.278 50.2803 209.486 50.7643 206.755 50.3656C204.308 50.0084 201.939 48.9479 199.471 49.1015C196.509 49.2859 193.932 51.1941 191.879 53.3366C189.826 55.4791 188.085 57.9433 185.753 59.7788C185.039 60.27 184.381 60.8369 183.789 61.4698C182.601 62.9169 182.481 64.9784 182.811 66.821C183.142 68.6637 183.86 70.4213 184.164 72.2685C184.449 74.0045 184.361 75.7781 184.484 77.533C184.607 79.2879 184.971 81.0961 186.028 82.5024C186.451 83.0769 187 83.5472 187.632 83.8776C188.265 84.208 188.964 84.3898 189.678 84.409C190.172 84.4204 190.589 83.9764 191.088 84.0922C191.711 84.2369 191.983 84.8289 192.536 85.0827Z" fill="#2F2E41"/>
<path d="M171.4 212.619L173.232 223.871L176.896 218.899L174.802 211.31L171.4 212.619Z" fill="#A0616A"/>
<path d="M173.753 127.573L170.869 135.174C170.869 135.174 167.996 173.89 167.996 176.769C167.996 179.647 170.089 216.544 170.875 218.114C170.875 218.114 174.276 213.142 178.725 213.927C183.173 214.712 181.342 200.843 181.342 200.843L185.528 166.563L184.743 149.293L173.753 127.573Z" fill="#575A89"/>
<path opacity="0.1" d="M173.753 127.573L170.869 135.174C170.869 135.174 167.996 173.89 167.996 176.769C167.996 179.647 170.089 216.544 170.875 218.114C170.875 218.114 174.276 213.142 178.725 213.927C183.173 214.712 181.342 200.843 181.342 200.843L185.528 166.563L184.743 149.293L173.753 127.573Z" fill="black"/>
<path d="M191.551 85.7051C191.551 85.7051 200.186 107.686 195.214 111.873C190.242 116.06 222.952 104.807 222.952 104.807L222.167 101.929C222.167 101.929 211.438 97.7422 216.672 85.7051C221.905 73.6679 191.551 85.7051 191.551 85.7051Z" fill="#A0616A"/>
<path opacity="0.1" d="M191.551 85.7051C191.551 85.7051 200.186 107.686 195.214 111.873C190.242 116.06 222.952 104.807 222.952 104.807L222.167 101.929C222.167 101.929 211.438 97.7422 216.672 85.7051C221.905 73.6679 191.551 85.7051 191.551 85.7051Z" fill="black"/>
<path d="M177.941 379.307C177.941 379.307 174.277 378.26 172.184 380.877C170.091 383.494 162.24 390.036 162.24 390.036C162.24 390.036 147.063 388.466 144.97 396.054C142.876 403.643 168.782 403.643 175.062 401.811C181.343 399.98 182.651 401.811 182.651 401.811C182.651 401.811 202.015 403.381 202.015 400.241C202.015 397.101 200.183 386.372 200.183 386.372L177.941 379.307Z" fill="#575A89"/>
<path d="M239.435 396.839L236.033 407.306C236.033 407.306 225.828 421.437 231.585 424.315C237.342 427.194 257.752 430.072 257.752 422.484V408.091C257.752 408.091 255.659 397.886 253.566 396.839C251.472 395.793 239.435 396.839 239.435 396.839Z" fill="#575A89"/>
<path d="M181.647 208.79C181.647 208.79 170.614 218.376 170.876 219.684C171.137 220.993 176.371 304.991 176.371 304.991L179.249 359.419C179.249 359.419 175.586 372.242 177.418 375.12C179.249 377.998 174.801 378.784 174.801 378.784C174.801 378.784 193.642 395.793 201.492 388.466L208.819 293.477L228.968 362.56C228.968 362.56 232.37 399.194 236.295 399.194C240.22 399.194 256.182 399.979 255.921 397.886C255.659 395.793 256.706 379.83 254.874 370.41C253.042 360.99 240.743 286.412 240.743 286.412C240.743 286.412 239.686 222.477 242.439 216.501C245.192 210.525 241.005 204.245 241.005 204.245L222.688 197.18L200.707 199.797L181.647 208.79Z" fill="#2F2E41"/>
<path d="M203.849 94.6025C213.965 94.6025 222.166 86.4016 222.166 76.2851C222.166 66.1687 213.965 57.9678 203.849 57.9678C193.732 57.9678 185.531 66.1687 185.531 76.2851C185.531 86.4016 193.732 94.6025 203.849 94.6025Z" fill="#A0616A"/>
<path d="M248.333 115.798C247.428 113.238 245.903 110.942 243.894 109.115C241.885 107.289 239.454 105.988 236.819 105.331C231.541 104.003 226.378 102.253 221.38 100.097C221.38 100.097 202.801 108.994 199.138 108.994C195.474 108.994 195.474 106.639 195.474 106.639C195.474 106.639 186.054 116.583 181.082 117.63C176.11 118.676 168.783 130.975 171.4 137.779C173.177 142.141 175.751 146.134 178.989 149.554C178.989 149.554 177.942 186.189 181.344 192.993C181.344 192.993 172.97 208.955 180.821 210.002C188.671 211.048 218.764 207.385 223.997 211.048C229.231 214.712 238.913 210.263 240.221 215.235C241.53 220.207 244.408 221.254 244.408 221.254C244.408 221.254 248.856 214.188 246.24 210.002C243.623 205.815 248.333 115.798 248.333 115.798Z" fill="#575A89"/>
<path d="M228.968 214.189L224.781 216.805C224.781 216.805 229.23 232.244 231.061 232.768C232.893 233.291 237.205 219.567 237.205 219.567L228.968 214.189Z" fill="#A0616A"/>
<path d="M189.395 83.2511C190.024 83.5395 190.781 83.1096 191.152 82.5254C192.564 80.3008 189.964 77.4323 190.527 74.8583C190.978 72.7961 193.321 71.5721 193.8 69.5163C194.266 67.5188 192.831 65.2672 193.801 63.4597C194.561 62.0437 196.458 61.671 198.046 61.9191C199.633 62.1672 201.14 62.8651 202.744 62.9629C204.881 63.0932 206.919 62.1524 209.009 61.6862C211.099 61.22 213.648 61.4025 214.877 63.1557C216.456 65.4067 214.854 68.5411 215.404 71.235C215.841 73.3742 220.813 74.8756 221.265 73.4291C222.302 70.0571 222.089 66.4243 220.665 63.1965C220.051 61.8185 219.214 60.5144 218.918 59.0351C218.516 57.0266 219.149 54.8704 218.485 52.9325C217.591 50.3209 214.632 48.9895 211.885 48.7191C209.137 48.4487 206.346 48.9328 203.614 48.534C201.167 48.1768 198.798 47.1163 196.33 47.27C193.369 47.4544 190.791 49.3625 188.738 51.5051C186.686 53.6476 184.944 56.1118 182.613 57.9472C181.899 58.4384 181.24 59.0054 180.648 59.6382C179.461 61.0854 179.34 63.1469 179.671 64.9895C180.001 66.8321 180.72 68.5898 181.023 70.437C181.309 72.173 181.221 73.9465 181.343 75.7015C181.466 77.4564 181.831 79.2645 182.888 80.6708C183.311 81.2453 183.859 81.7157 184.492 82.0461C185.124 82.3765 185.824 82.5582 186.537 82.5775C187.031 82.5889 187.449 82.1448 187.947 82.2606C188.571 82.4053 188.842 82.9974 189.395 83.2511Z" fill="#2F2E41"/>
<path opacity="0.1" d="M237.997 120.377L246.501 115.798C246.501 115.798 267.173 164.993 262.202 178.6C257.23 192.208 238.127 220.207 238.127 220.207C238.127 220.207 222.95 217.067 224.52 213.927C226.09 210.787 236.296 190.638 237.081 188.021C237.866 185.404 243.099 168.395 240.744 166.563C238.389 164.732 233.81 122.209 233.81 122.209L237.997 120.377Z" fill="black"/>
<path d="M237.866 112.92L248.333 115.798C248.333 115.798 269.006 164.993 264.034 178.601C259.062 192.208 239.959 220.207 239.959 220.207C239.959 220.207 224.782 217.067 226.352 213.927C227.922 210.787 238.128 190.638 238.913 188.021C239.698 185.404 244.931 168.395 242.576 166.563C240.221 164.732 228.969 119.462 228.969 119.462L237.866 112.92Z" fill="#575A89"/>
<path d="M350.92 154.237C350.92 196.973 291.15 231.618 217.42 231.618C143.69 231.618 83.9199 196.973 83.9199 154.237" stroke="#3F3D56" stroke-width="1.07614" stroke-miterlimit="10"/>
<path d="M326.634 232.716C296.793 248.81 257.857 258.549 215.264 258.549C174.426 258.549 136.95 249.596 107.629 234.673" stroke="#3F3D56" stroke-width="1.07614" stroke-miterlimit="10"/>
<path d="M284.088 60.4526C340.878 75.3792 381.323 108.212 385.084 146.883" stroke="#3F3D56" stroke-width="1.07614" stroke-miterlimit="10"/>
<path d="M53.3574 121.748C62.9262 104.161 80.4067 88.6834 103.31 76.793" stroke="#3F3D56" stroke-width="1.07614" stroke-miterlimit="10"/>
<path d="M170.758 310.009H279.367C300.849 273.806 300.849 237.603 279.367 201.399H170.758C200.794 237.603 200.794 273.806 170.758 310.009Z" fill="#F2F2F2"/>
<path d="M267.898 222.087H206.697V229.845H267.898V222.087Z" fill="#53389E"/>
<path d="M282.983 245.361H201.957V247.947H282.983V245.361Z" fill="white"/>
<path d="M282.983 258.721H201.957V261.307H282.983V258.721Z" fill="white"/>
<path d="M124.72 236.29H16.111C-5.37034 200.086 -5.37034 163.883 16.111 127.68H124.72C94.6845 163.883 94.6845 200.086 124.72 236.29Z" fill="#F2F2F2"/>
<path d="M89.3783 140.61H28.1777V148.368H89.3783V140.61Z" fill="#53389E"/>
<path d="M95.8445 162.16H14.8184V164.746H95.8445V162.16Z" fill="white"/>
<path d="M95.8445 175.52H14.8184V178.106H95.8445V175.52Z" fill="white"/>
<path d="M95.8445 188.881H14.8184V191.467H95.8445V188.881Z" fill="white"/>
<path d="M95.8445 202.242H14.8184V204.828H95.8445V202.242Z" fill="white"/>
<path d="M302.281 186.261H410.891C432.372 150.057 432.372 113.854 410.891 77.6511H302.281C332.317 113.854 332.317 150.057 302.281 186.261Z" fill="#F2F2F2"/>
<path d="M398.124 88.4263H336.924V96.1841H398.124V88.4263Z" fill="#53389E"/>
<path d="M411.483 109.975H330.457V112.561H411.483V109.975Z" fill="white"/>
</g>
<defs>
<clipPath id="clip0_146_1150">
<rect width="427" height="445.52" fill="white" transform="translate(0 0.239746)"/>
</clipPath>
</defs>
</svg>
