<svg width="26" height="27" viewBox="0 0 26 27" fill="none" xmlns="http://www.w3.org/2000/svg">
<path d="M5.80078 11.2285V8.82854C5.80078 4.85654 7.00078 1.62854 13.0008 1.62854C19.0008 1.62854 20.2008 4.85654 20.2008 8.82854V11.2285M13.0008 21.4285C13.7964 21.4285 14.5595 21.1125 15.1221 20.5499C15.6847 19.9873 16.0008 19.2242 16.0008 18.4285C16.0008 17.6329 15.6847 16.8698 15.1221 16.3072C14.5595 15.7446 13.7964 15.4285 13.0008 15.4285C12.2051 15.4285 11.4421 15.7446 10.8795 16.3072C10.3169 16.8698 10.0008 17.6329 10.0008 18.4285C10.0008 19.2242 10.3169 19.9873 10.8795 20.5499C11.4421 21.1125 12.2051 21.4285 13.0008 21.4285Z" stroke="#667085" stroke-width="1.8" stroke-linecap="round" stroke-linejoin="round"/>
<path d="M19 25.6285H7C2.2 25.6285 1 24.4285 1 19.6285V17.2285C1 12.4285 2.2 11.2285 7 11.2285H19C23.8 11.2285 25 12.4285 25 17.2285V19.6285C25 24.4285 23.8 25.6285 19 25.6285Z" stroke="#667085" stroke-width="1.8" stroke-linecap="round" stroke-linejoin="round"/>
</svg>
