<svg width="22" height="22" viewBox="0 0 22 22" fill="none" xmlns="http://www.w3.org/2000/svg">
<path d="M21 11C21 5.477 16.523 1 11 1C5.477 1 1 5.477 1 11C1 16.523 5.477 21 11 21" stroke="#F04438" stroke-width="1.5" stroke-linecap="round" stroke-linejoin="round"/>
<path d="M12.0009 1.05005C12.0009 1.05005 15.0009 5.00005 15.0009 11M10.0009 20.9501C10.0009 20.9501 7.00086 17 7.00086 11C7.00086 5.00005 10.0009 1.05005 10.0009 1.05005M1.63086 14.5H11.0009M1.63086 7.50005H20.3709" stroke="#F04438" stroke-width="1.5" stroke-linecap="round" stroke-linejoin="round"/>
<path d="M20.8792 16.9169C21.3732 17.2209 21.3422 17.9599 20.8342 18.0179L18.2672 18.3089L17.1162 20.6209C16.8882 21.0799 16.1832 20.8549 16.0662 20.2869L14.8112 14.1709C14.7122 13.6909 15.1442 13.3889 15.5612 13.6459L20.8792 16.9169Z" stroke="#F04438" stroke-width="1.5"/>
</svg>
