<svg width="125" height="48" viewBox="0 0 125 48" fill="none" xmlns="http://www.w3.org/2000/svg">
<circle cx="23.5" cy="24" r="23.5" fill="#53389E"/>
<circle cx="32.5" cy="32" r="2.5" fill="white"/>
<path d="M26.5612 37.78L24.0412 33.7C23.6252 33.076 22.9372 32.764 21.9772 32.764C20.3132 32.748 18.8572 32.38 17.6092 31.66C16.3612 30.94 15.3852 29.924 14.6812 28.612C13.9932 27.3 13.6492 25.772 13.6492 24.028C13.6492 22.268 13.9932 20.74 14.6812 19.444C15.3852 18.132 16.3612 17.116 17.6092 16.396C18.8572 15.676 20.3212 15.316 22.0012 15.316C23.6812 15.316 25.1452 15.676 26.3932 16.396C27.6572 17.116 28.6332 18.132 29.3212 19.444C30.0252 20.74 30.3772 22.26 30.3772 24.004C30.3772 25.844 29.9932 27.444 29.2252 28.804C28.4732 30.148 27.4252 31.156 26.0812 31.828C26.8172 32.052 27.4252 32.572 27.9052 33.388L29.7292 36.316L26.5612 37.78ZM22.0012 29.596C23.4092 29.596 24.5052 29.108 25.2892 28.132C26.0892 27.14 26.4892 25.772 26.4892 24.028C26.4892 22.268 26.0972 20.908 25.3132 19.948C24.5292 18.972 23.4252 18.484 22.0012 18.484C20.6092 18.484 19.5132 18.972 18.7132 19.948C17.9292 20.908 17.5372 22.268 17.5372 24.028C17.5372 25.772 17.9292 27.14 18.7132 28.132C19.5132 29.108 20.6092 29.596 22.0012 29.596Z" fill="white"/>
<path d="M66.5651 37.28L64.0451 33.2C63.6291 32.576 62.9411 32.264 61.9811 32.264C60.3171 32.248 58.8611 31.88 57.6131 31.16C56.3651 30.44 55.3891 29.424 54.6851 28.112C53.9971 26.8 53.6531 25.272 53.6531 23.528C53.6531 21.768 53.9971 20.24 54.6851 18.944C55.3891 17.632 56.3651 16.616 57.6131 15.896C58.8611 15.176 60.3251 14.816 62.0051 14.816C63.6851 14.816 65.1491 15.176 66.3971 15.896C67.6611 16.616 68.6371 17.632 69.3251 18.944C70.0291 20.24 70.3811 21.76 70.3811 23.504C70.3811 25.344 69.9971 26.944 69.2291 28.304C68.4771 29.648 67.4291 30.656 66.0851 31.328C66.8211 31.552 67.4291 32.072 67.9091 32.888L69.7331 35.816L66.5651 37.28ZM62.0051 29.096C63.4131 29.096 64.5091 28.608 65.2931 27.632C66.0931 26.64 66.4931 25.272 66.4931 23.528C66.4931 21.768 66.1011 20.408 65.3171 19.448C64.5331 18.472 63.4291 17.984 62.0051 17.984C60.6131 17.984 59.5171 18.472 58.7171 19.448C57.9331 20.408 57.5411 21.768 57.5411 23.528C57.5411 25.272 57.9331 26.64 58.7171 27.632C59.5171 28.608 60.6131 29.096 62.0051 29.096ZM81.1787 36.32V30.392C80.8427 30.952 80.3467 31.408 79.6907 31.76C79.0347 32.096 78.3147 32.264 77.5307 32.264C76.5067 32.264 75.6027 32.016 74.8187 31.52C74.0507 31.008 73.4507 30.296 73.0187 29.384C72.5867 28.456 72.3707 27.36 72.3707 26.096C72.3707 24.832 72.5867 23.744 73.0187 22.832C73.4507 21.92 74.0507 21.216 74.8187 20.72C75.6027 20.224 76.5067 19.976 77.5307 19.976C78.3627 19.976 79.1067 20.16 79.7627 20.528C80.4347 20.896 80.9307 21.384 81.2507 21.992V20.216H84.8027V36.32H81.1787ZM78.6107 29.552C79.3787 29.552 80.0027 29.272 80.4827 28.712C80.9787 28.152 81.2267 27.28 81.2267 26.096C81.2267 24.928 80.9787 24.072 80.4827 23.528C80.0027 22.968 79.3787 22.688 78.6107 22.688C77.8427 22.688 77.2187 22.968 76.7387 23.528C76.2587 24.072 76.0187 24.928 76.0187 26.096C76.0187 27.28 76.2587 28.152 76.7387 28.712C77.2187 29.272 77.8427 29.552 78.6107 29.552ZM91.9391 32.264C90.4351 32.264 89.3231 31.848 88.6031 31.016C87.8991 30.184 87.5471 28.936 87.5471 27.272V20.216H91.1711V27.368C91.1711 28.76 91.7711 29.456 92.9711 29.456C93.6591 29.456 94.2191 29.216 94.6511 28.736C95.0991 28.24 95.3231 27.592 95.3231 26.792V20.216H98.9471V32H95.4191V30.392C94.6351 31.64 93.4751 32.264 91.9391 32.264ZM101.607 17.936V14.552H105.519V17.936H101.607ZM101.751 32V20.216H105.375V32H101.751ZM107.885 32V29.672L113.549 22.928H107.885V20.216H117.461V22.544L111.797 29.312H117.725V32H107.885ZM119.489 32V28.16H123.377V32H119.489Z" fill="#53389E"/>
</svg>
