<svg width="47" height="48" viewBox="0 0 47 48" fill="none" xmlns="http://www.w3.org/2000/svg">
<circle cx="23.5" cy="24" r="23.5" fill="#53389E"/>
<circle cx="32.5" cy="32" r="2.5" fill="white"/>
<path d="M26.5612 37.78L24.0412 33.7C23.6252 33.076 22.9372 32.764 21.9772 32.764C20.3132 32.748 18.8572 32.38 17.6092 31.66C16.3612 30.94 15.3852 29.924 14.6812 28.612C13.9932 27.3 13.6492 25.772 13.6492 24.028C13.6492 22.268 13.9932 20.74 14.6812 19.444C15.3852 18.132 16.3612 17.116 17.6092 16.396C18.8572 15.676 20.3212 15.316 22.0012 15.316C23.6812 15.316 25.1452 15.676 26.3932 16.396C27.6572 17.116 28.6332 18.132 29.3212 19.444C30.0252 20.74 30.3772 22.26 30.3772 24.004C30.3772 25.844 29.9932 27.444 29.2252 28.804C28.4732 30.148 27.4252 31.156 26.0812 31.828C26.8172 32.052 27.4252 32.572 27.9052 33.388L29.7292 36.316L26.5612 37.78ZM22.0012 29.596C23.4092 29.596 24.5052 29.108 25.2892 28.132C26.0892 27.14 26.4892 25.772 26.4892 24.028C26.4892 22.268 26.0972 20.908 25.3132 19.948C24.5292 18.972 23.4252 18.484 22.0012 18.484C20.6092 18.484 19.5132 18.972 18.7132 19.948C17.9292 20.908 17.5372 22.268 17.5372 24.028C17.5372 25.772 17.9292 27.14 18.7132 28.132C19.5132 29.108 20.6092 29.596 22.0012 29.596Z" fill="white"/>
</svg>
