<svg width="117" height="38" viewBox="0 0 117 38" fill="none" xmlns="http://www.w3.org/2000/svg">
<circle cx="19.5" cy="19" r="19" fill="#53389E"/>
<circle cx="26.7771" cy="25.4681" r="2.02128" fill="white"/>
<path d="M21.8909 30.3539L19.8535 27.0552C19.5171 26.5507 18.9609 26.2984 18.1847 26.2984C16.8393 26.2855 15.6622 25.9879 14.6531 25.4058C13.6441 24.8237 12.855 24.0022 12.2858 22.9415C11.7296 21.8807 11.4514 20.6453 11.4514 19.2353C11.4514 17.8123 11.7296 16.5769 12.2858 15.529C12.855 14.4683 13.6441 13.6468 14.6531 13.0647C15.6622 12.4826 16.8458 12.1915 18.2041 12.1915C19.5624 12.1915 20.7461 12.4826 21.7551 13.0647C22.777 13.6468 23.5662 14.4683 24.1224 15.529C24.6916 16.5769 24.9762 17.8058 24.9762 19.2159C24.9762 20.7035 24.6657 21.9971 24.0448 23.0967C23.4368 24.1833 22.5895 24.9983 21.5028 25.5416C22.0979 25.7227 22.5895 26.1432 22.9776 26.8029L24.4523 29.1702L21.8909 30.3539ZM18.2041 23.737C19.3425 23.737 20.2286 23.3425 20.8625 22.5534C21.5093 21.7513 21.8327 20.6453 21.8327 19.2353C21.8327 17.8123 21.5158 16.7127 20.8819 15.9365C20.248 15.1474 19.3554 14.7529 18.2041 14.7529C17.0787 14.7529 16.1925 15.1474 15.5457 15.9365C14.9119 16.7127 14.5949 17.8123 14.5949 19.2353C14.5949 20.6453 14.9119 21.7513 15.5457 22.5534C16.1925 23.3425 17.0787 23.737 18.2041 23.737Z" fill="white"/>
<path d="M58.0651 32.28L55.5451 28.2C55.1291 27.576 54.4411 27.264 53.4811 27.264C51.8171 27.248 50.3611 26.88 49.1131 26.16C47.8651 25.44 46.8891 24.424 46.1851 23.112C45.4971 21.8 45.1531 20.272 45.1531 18.528C45.1531 16.768 45.4971 15.24 46.1851 13.944C46.8891 12.632 47.8651 11.616 49.1131 10.896C50.3611 10.176 51.8251 9.816 53.5051 9.816C55.1851 9.816 56.6491 10.176 57.8971 10.896C59.1611 11.616 60.1371 12.632 60.8251 13.944C61.5291 15.24 61.8811 16.76 61.8811 18.504C61.8811 20.344 61.4971 21.944 60.7291 23.304C59.9771 24.648 58.9291 25.656 57.5851 26.328C58.3211 26.552 58.9291 27.072 59.4091 27.888L61.2331 30.816L58.0651 32.28ZM53.5051 24.096C54.9131 24.096 56.0091 23.608 56.7931 22.632C57.5931 21.64 57.9931 20.272 57.9931 18.528C57.9931 16.768 57.6011 15.408 56.8171 14.448C56.0331 13.472 54.9291 12.984 53.5051 12.984C52.1131 12.984 51.0171 13.472 50.2171 14.448C49.4331 15.408 49.0411 16.768 49.0411 18.528C49.0411 20.272 49.4331 21.64 50.2171 22.632C51.0171 23.608 52.1131 24.096 53.5051 24.096ZM72.6787 31.32V25.392C72.3427 25.952 71.8467 26.408 71.1907 26.76C70.5347 27.096 69.8147 27.264 69.0307 27.264C68.0067 27.264 67.1027 27.016 66.3187 26.52C65.5507 26.008 64.9507 25.296 64.5187 24.384C64.0867 23.456 63.8707 22.36 63.8707 21.096C63.8707 19.832 64.0867 18.744 64.5187 17.832C64.9507 16.92 65.5507 16.216 66.3187 15.72C67.1027 15.224 68.0067 14.976 69.0307 14.976C69.8627 14.976 70.6067 15.16 71.2627 15.528C71.9347 15.896 72.4307 16.384 72.7507 16.992V15.216H76.3027V31.32H72.6787ZM70.1107 24.552C70.8787 24.552 71.5027 24.272 71.9827 23.712C72.4787 23.152 72.7267 22.28 72.7267 21.096C72.7267 19.928 72.4787 19.072 71.9827 18.528C71.5027 17.968 70.8787 17.688 70.1107 17.688C69.3427 17.688 68.7187 17.968 68.2387 18.528C67.7587 19.072 67.5187 19.928 67.5187 21.096C67.5187 22.28 67.7587 23.152 68.2387 23.712C68.7187 24.272 69.3427 24.552 70.1107 24.552ZM83.4391 27.264C81.9351 27.264 80.8231 26.848 80.1031 26.016C79.3991 25.184 79.0471 23.936 79.0471 22.272V15.216H82.6711V22.368C82.6711 23.76 83.2711 24.456 84.4711 24.456C85.1591 24.456 85.7191 24.216 86.1511 23.736C86.5991 23.24 86.8231 22.592 86.8231 21.792V15.216H90.4471V27H86.9191V25.392C86.1351 26.64 84.9751 27.264 83.4391 27.264ZM93.1074 12.936V9.552H97.0194V12.936H93.1074ZM93.2514 27V15.216H96.8754V27H93.2514ZM99.3853 27V24.672L105.049 17.928H99.3853V15.216H108.961V17.544L103.297 24.312H109.225V27H99.3853ZM110.989 27V23.16H114.877V27H110.989Z" fill="#53389E"/>
</svg>
