<svg width="24" height="24" viewBox="0 0 24 24" fill="none" xmlns="http://www.w3.org/2000/svg">
<path d="M22.485 9.30214C22.0811 8.88 21.6632 8.445 21.5057 8.0625C21.36 7.71214 21.3514 7.13143 21.3429 6.56893C21.3268 5.52321 21.3096 4.33821 20.4857 3.51429C19.6618 2.69036 18.4768 2.67321 17.4311 2.65714C16.8686 2.64857 16.2879 2.64 15.9375 2.49429C15.5561 2.33679 15.12 1.91893 14.6979 1.515C13.9586 0.804643 13.1186 0 12 0C10.8814 0 10.0425 0.804643 9.30214 1.515C8.88 1.91893 8.445 2.33679 8.0625 2.49429C7.71429 2.64 7.13143 2.64857 6.56893 2.65714C5.52321 2.67321 4.33821 2.69036 3.51429 3.51429C2.69036 4.33821 2.67857 5.52321 2.65714 6.56893C2.64857 7.13143 2.64 7.71214 2.49429 8.0625C2.33679 8.44393 1.91893 8.88 1.515 9.30214C0.804643 10.0414 0 10.8814 0 12C0 13.1186 0.804643 13.9575 1.515 14.6979C1.91893 15.12 2.33679 15.555 2.49429 15.9375C2.64 16.2879 2.64857 16.8686 2.65714 17.4311C2.67321 18.4768 2.69036 19.6618 3.51429 20.4857C4.33821 21.3096 5.52321 21.3268 6.56893 21.3429C7.13143 21.3514 7.71214 21.36 8.0625 21.5057C8.44393 21.6632 8.88 22.0811 9.30214 22.485C10.0414 23.1954 10.8814 24 12 24C13.1186 24 13.9575 23.1954 14.6979 22.485C15.12 22.0811 15.555 21.6632 15.9375 21.5057C16.2879 21.36 16.8686 21.3514 17.4311 21.3429C18.4768 21.3268 19.6618 21.3096 20.4857 20.4857C21.3096 19.6618 21.3268 18.4768 21.3429 17.4311C21.3514 16.8686 21.36 16.2879 21.5057 15.9375C21.6632 15.5561 22.0811 15.12 22.485 14.6979C23.1954 13.9586 24 13.1186 24 12C24 10.8814 23.1954 10.0425 22.485 9.30214ZM21.2475 13.5118C20.7343 14.0475 20.2029 14.6014 19.9211 15.2818C19.6511 15.9354 19.6393 16.6821 19.6286 17.4054C19.6179 18.1554 19.6061 18.9407 19.2729 19.2729C18.9396 19.605 18.1596 19.6179 17.4054 19.6286C16.6821 19.6393 15.9354 19.6511 15.2818 19.9211C14.6014 20.2029 14.0475 20.7343 13.5118 21.2475C12.9761 21.7607 12.4286 22.2857 12 22.2857C11.5714 22.2857 11.0196 21.7586 10.4882 21.2475C9.95679 20.7364 9.39857 20.2029 8.71821 19.9211C8.06464 19.6511 7.31786 19.6393 6.59464 19.6286C5.84464 19.6179 5.05929 19.6061 4.72714 19.2729C4.395 18.9396 4.38214 18.1596 4.37143 17.4054C4.36071 16.6821 4.34893 15.9354 4.07893 15.2818C3.79714 14.6014 3.26571 14.0475 2.7525 13.5118C2.23929 12.9761 1.71429 12.4286 1.71429 12C1.71429 11.5714 2.24143 11.0196 2.7525 10.4882C3.26357 9.95679 3.79714 9.39857 4.07893 8.71821C4.34893 8.06464 4.36071 7.31786 4.37143 6.59464C4.38214 5.84464 4.39393 5.05929 4.72714 4.72714C5.06036 4.395 5.84036 4.38214 6.59464 4.37143C7.31786 4.36071 8.06464 4.34893 8.71821 4.07893C9.39857 3.79714 9.9525 3.26571 10.4882 2.7525C11.0239 2.23929 11.5714 1.71429 12 1.71429C12.4286 1.71429 12.9804 2.24143 13.5118 2.7525C14.0432 3.26357 14.6014 3.79714 15.2818 4.07893C15.9354 4.34893 16.6821 4.36071 17.4054 4.37143C18.1554 4.38214 18.9407 4.39393 19.2729 4.72714C19.605 5.06036 19.6179 5.84036 19.6286 6.59464C19.6393 7.31786 19.6511 8.06464 19.9211 8.71821C20.2029 9.39857 20.7343 9.9525 21.2475 10.4882C21.7607 11.0239 22.2857 11.5714 22.2857 12C22.2857 12.4286 21.7586 12.9804 21.2475 13.5118ZM13.2857 17.5714C13.2857 17.8257 13.2103 18.0743 13.069 18.2857C12.9278 18.4972 12.727 18.662 12.492 18.7593C12.2571 18.8566 11.9986 18.882 11.7492 18.8324C11.4998 18.7828 11.2707 18.6604 11.0909 18.4806C10.9111 18.3008 10.7886 18.0717 10.739 17.8223C10.6894 17.5729 10.7148 17.3143 10.8122 17.0794C10.9095 16.8445 11.0743 16.6437 11.2857 16.5024C11.4971 16.3611 11.7457 16.2857 12 16.2857C12.341 16.2857 12.668 16.4212 12.9091 16.6623C13.1503 16.9034 13.2857 17.2304 13.2857 17.5714ZM16.2857 9.85714C16.2857 11.7193 14.8114 13.2782 12.8571 13.6371V13.7143C12.8571 13.9416 12.7668 14.1596 12.6061 14.3204C12.4453 14.4811 12.2273 14.5714 12 14.5714C11.7727 14.5714 11.5547 14.4811 11.3939 14.3204C11.2332 14.1596 11.1429 13.9416 11.1429 13.7143V12.8571C11.1429 12.6298 11.2332 12.4118 11.3939 12.2511C11.5547 12.0903 11.7727 12 12 12C13.4175 12 14.5714 11.0357 14.5714 9.85714C14.5714 8.67857 13.4175 7.71429 12 7.71429C10.5825 7.71429 9.42857 8.67857 9.42857 9.85714V10.2857C9.42857 10.513 9.33827 10.7311 9.17752 10.8918C9.01677 11.0526 8.79876 11.1429 8.57143 11.1429C8.3441 11.1429 8.12608 11.0526 7.96534 10.8918C7.80459 10.7311 7.71429 10.513 7.71429 10.2857V9.85714C7.71429 7.73036 9.63643 6 12 6C14.3636 6 16.2857 7.73036 16.2857 9.85714Z" fill="#475467"/>
</svg>
