<svg width="34" height="34" viewBox="0 0 34 34" fill="none" xmlns="http://www.w3.org/2000/svg">
<path d="M9.06602 21.0348L2.74428 14.7131C2.44682 14.4159 2.22785 14.0495 2.10703 13.6468C1.98622 13.2441 1.96735 12.8177 2.05212 12.4058C2.13424 11.953 2.3358 11.5304 2.63595 11.1816C2.9361 10.8327 3.32397 10.5704 3.75945 10.4217L28.5158 2.16185C28.9796 1.98947 29.4832 1.95391 29.9667 2.05938C30.4502 2.16486 30.8932 2.40694 31.2431 2.75686C31.5931 3.10677 31.8351 3.5498 31.9406 4.03329C32.0461 4.51677 32.0105 5.02037 31.8381 5.48423L23.5784 30.2405C23.4395 30.6615 23.1946 31.0397 22.8673 31.3387C22.54 31.6377 22.1413 31.8475 21.7095 31.9479C21.2804 32.0534 20.8312 32.045 20.4063 31.9236C19.9814 31.8023 19.5955 31.572 19.2869 31.2557L14.2572 26.2491L8.85838 29.0408L9.06602 21.0348ZM9.06602 21.0348L31.0998 2.66944" stroke="#53389E" stroke-width="2.30721" stroke-linecap="round" stroke-linejoin="round"/>
</svg>
