<svg width="20" height="20" viewBox="0 0 20 20" fill="none" xmlns="http://www.w3.org/2000/svg">
<path d="M19.0002 19.0001L14.6572 14.6571M14.6572 14.6571C15.4001 13.9142 15.9894 13.0323 16.3914 12.0616C16.7935 11.091 17.0004 10.0507 17.0004 9.00008C17.0004 7.94948 16.7935 6.90917 16.3914 5.93854C15.9894 4.96791 15.4001 4.08597 14.6572 3.34308C13.9143 2.6002 13.0324 2.01091 12.0618 1.60886C11.0911 1.20681 10.0508 0.999878 9.00021 0.999878C7.9496 0.999878 6.90929 1.20681 5.93866 1.60886C4.96803 2.01091 4.08609 2.6002 3.34321 3.34308C1.84288 4.84341 1 6.8783 1 9.00008C1 11.1219 1.84288 13.1568 3.34321 14.6571C4.84354 16.1574 6.87842 17.0003 9.00021 17.0003C11.122 17.0003 13.1569 16.1574 14.6572 14.6571Z" stroke="currentColor" stroke-width="1.5" stroke-linecap="round" stroke-linejoin="round"/>
</svg>
