<svg width="25" height="20" viewBox="0 0 25 20" fill="none" xmlns="http://www.w3.org/2000/svg">
<path d="M1.32003 9.84721L1.25885 10L1.32003 10.1528C3.04811 14.4688 7.79803 17.8114 12.3333 17.8114C16.8686 17.8114 21.6186 14.4688 23.3466 10.1528L23.4078 10L23.3466 9.84721C21.6186 5.53126 16.8686 2.18869 12.3333 2.18869C7.79803 2.18869 3.04811 5.53126 1.32003 9.84721ZM19.5497 3.83244C21.6661 5.34252 23.2939 7.43925 24.2323 9.86378C24.2633 9.95197 24.2633 10.0481 24.2323 10.1363C23.2939 12.5608 21.6661 14.6575 19.5497 16.1676C17.4361 17.6757 14.9276 18.5327 12.3333 18.6333C9.73902 18.5327 7.2306 17.6757 5.11699 16.1676C3.00061 14.6575 1.37277 12.5608 0.434348 10.1362C0.403381 10.0481 0.403381 9.95197 0.434348 9.8638C1.37277 7.43926 3.00061 5.34252 5.11699 3.83244C7.2306 2.32433 9.73902 1.46732 12.3333 1.36674C14.9277 1.46732 17.4361 2.32433 19.5497 3.83244Z" fill="#475467" stroke="#475467" stroke-width="0.822246"/>
<path d="M9.82138 6.23968C10.5651 5.74276 11.4394 5.47753 12.3339 5.47753C13.5333 5.47753 14.6835 5.95399 15.5317 6.80209C16.3798 7.6502 16.8562 8.80048 16.8562 9.99988C16.8562 10.8943 16.591 11.7687 16.0941 12.5124C15.5971 13.2561 14.8908 13.8357 14.0645 14.178C13.2381 14.5203 12.3288 14.6098 11.4516 14.4353C10.5743 14.2608 9.76854 13.8301 9.13608 13.1977C8.50362 12.5652 8.07291 11.7594 7.89841 10.8821C7.72392 10.0049 7.81347 9.0956 8.15576 8.26925C8.49805 7.4429 9.07769 6.73661 9.82138 6.23968ZM10.2782 13.0764C10.8867 13.483 11.6021 13.7 12.3339 13.7C13.3152 13.7 14.2563 13.3102 14.9502 12.6162C15.6441 11.9223 16.034 10.9812 16.034 9.99988C16.034 9.26807 15.817 8.55269 15.4104 7.94421C15.0038 7.33573 14.4259 6.86148 13.7498 6.58143C13.0737 6.30138 12.3298 6.2281 11.612 6.37087C10.8943 6.51364 10.235 6.86604 9.7175 7.38351C9.20003 7.90098 8.84763 8.56027 8.70486 9.27803C8.56209 9.99578 8.63536 10.7397 8.91541 11.4158C9.19547 12.092 9.66972 12.6698 10.2782 13.0764Z" fill="#475467" stroke="#475467" stroke-width="0.822246"/>
</svg>
