<svg width="36" height="36" viewBox="0 0 36 36" fill="none" xmlns="http://www.w3.org/2000/svg">
<path d="M33.7275 13.9532C33.1216 13.32 32.4948 12.6675 32.2586 12.0938C32.04 11.5682 32.0271 10.6971 32.0143 9.85339C31.9902 8.28482 31.9645 6.50732 30.7286 5.27143C29.4927 4.03554 27.7152 4.00982 26.1466 3.98571C25.3029 3.97286 24.4318 3.96 23.9062 3.74143C23.3341 3.50518 22.68 2.87839 22.0468 2.2725C20.9379 1.20696 19.6779 0 18 0C16.3221 0 15.0637 1.20696 13.9532 2.2725C13.32 2.87839 12.6675 3.50518 12.0938 3.74143C11.5714 3.96 10.6971 3.97286 9.85339 3.98571C8.28482 4.00982 6.50732 4.03554 5.27143 5.27143C4.03554 6.50732 4.01786 8.28482 3.98571 9.85339C3.97286 10.6971 3.96 11.5682 3.74143 12.0938C3.50518 12.6659 2.87839 13.32 2.2725 13.9532C1.20696 15.0621 0 16.3221 0 18C0 19.6779 1.20696 20.9362 2.2725 22.0468C2.87839 22.68 3.50518 23.3325 3.74143 23.9062C3.96 24.4318 3.97286 25.3029 3.98571 26.1466C4.00982 27.7152 4.03554 29.4927 5.27143 30.7286C6.50732 31.9645 8.28482 31.9902 9.85339 32.0143C10.6971 32.0271 11.5682 32.04 12.0938 32.2586C12.6659 32.4948 13.32 33.1216 13.9532 33.7275C15.0621 34.793 16.3221 36 18 36C19.6779 36 20.9362 34.793 22.0468 33.7275C22.68 33.1216 23.3325 32.4948 23.9062 32.2586C24.4318 32.04 25.3029 32.0271 26.1466 32.0143C27.7152 31.9902 29.4927 31.9645 30.7286 30.7286C31.9645 29.4927 31.9902 27.7152 32.0143 26.1466C32.0271 25.3029 32.04 24.4318 32.2586 23.9062C32.4948 23.3341 33.1216 22.68 33.7275 22.0468C34.793 20.9379 36 19.6779 36 18C36 16.3221 34.793 15.0637 33.7275 13.9532ZM31.8712 20.2677C31.1014 21.0712 30.3043 21.9021 29.8816 22.9227C29.4766 23.903 29.4589 25.0232 29.4429 26.108C29.4268 27.233 29.4091 28.4111 28.9093 28.9093C28.4095 29.4075 27.2395 29.4268 26.108 29.4429C25.0232 29.4589 23.903 29.4766 22.9227 29.8816C21.9021 30.3043 21.0712 31.1014 20.2677 31.8712C19.4641 32.6411 18.6429 33.4286 18 33.4286C17.3571 33.4286 16.5295 32.6379 15.7323 31.8712C14.9352 31.1046 14.0979 30.3043 13.0773 29.8816C12.097 29.4766 10.9768 29.4589 9.89196 29.4429C8.76696 29.4268 7.58893 29.4091 7.09071 28.9093C6.5925 28.4095 6.57321 27.2395 6.55714 26.108C6.54107 25.0232 6.52339 23.903 6.11839 22.9227C5.69571 21.9021 4.89857 21.0712 4.12875 20.2677C3.35893 19.4641 2.57143 18.6429 2.57143 18C2.57143 17.3571 3.36214 16.5295 4.12875 15.7323C4.89536 14.9352 5.69571 14.0979 6.11839 13.0773C6.52339 12.097 6.54107 10.9768 6.55714 9.89196C6.57321 8.76696 6.59089 7.58893 7.09071 7.09071C7.59054 6.5925 8.76054 6.57321 9.89196 6.55714C10.9768 6.54107 12.097 6.52339 13.0773 6.11839C14.0979 5.69571 14.9288 4.89857 15.7323 4.12875C16.5359 3.35893 17.3571 2.57143 18 2.57143C18.6429 2.57143 19.4705 3.36214 20.2677 4.12875C21.0648 4.89536 21.9021 5.69571 22.9227 6.11839C23.903 6.52339 25.0232 6.54107 26.108 6.55714C27.233 6.57321 28.4111 6.59089 28.9093 7.09071C29.4075 7.59054 29.4268 8.76054 29.4429 9.89196C29.4589 10.9768 29.4766 12.097 29.8816 13.0773C30.3043 14.0979 31.1014 14.9288 31.8712 15.7323C32.6411 16.5359 33.4286 17.3571 33.4286 18C33.4286 18.6429 32.6379 19.4705 31.8712 20.2677ZM19.9286 26.3571C19.9286 26.7386 19.8155 27.1114 19.6035 27.4286C19.3916 27.7458 19.0904 27.9929 18.738 28.1389C18.3856 28.2849 17.9979 28.3231 17.6238 28.2487C17.2496 28.1742 16.906 27.9906 16.6363 27.7208C16.3666 27.4511 16.1829 27.1075 16.1085 26.7334C16.0341 26.3593 16.0723 25.9715 16.2182 25.6191C16.3642 25.2667 16.6114 24.9655 16.9285 24.7536C17.2457 24.5417 17.6186 24.4286 18 24.4286C18.5115 24.4286 19.002 24.6318 19.3637 24.9934C19.7254 25.3551 19.9286 25.8457 19.9286 26.3571ZM24.4286 14.7857C24.4286 17.5789 22.2171 19.9173 19.2857 20.4557V20.5714C19.2857 20.9124 19.1503 21.2394 18.9091 21.4806C18.668 21.7217 18.341 21.8571 18 21.8571C17.659 21.8571 17.332 21.7217 17.0909 21.4806C16.8497 21.2394 16.7143 20.9124 16.7143 20.5714V19.2857C16.7143 18.9447 16.8497 18.6177 17.0909 18.3766C17.332 18.1355 17.659 18 18 18C20.1262 18 21.8571 16.5536 21.8571 14.7857C21.8571 13.0179 20.1262 11.5714 18 11.5714C15.8737 11.5714 14.1429 13.0179 14.1429 14.7857V15.4286C14.1429 15.7696 14.0074 16.0966 13.7663 16.3377C13.5252 16.5788 13.1981 16.7143 12.8571 16.7143C12.5162 16.7143 12.1891 16.5788 11.948 16.3377C11.7069 16.0966 11.5714 15.7696 11.5714 15.4286V14.7857C11.5714 11.5955 14.4546 9 18 9C21.5454 9 24.4286 11.5955 24.4286 14.7857Z" fill="#53389E"/>
</svg>
